<svg version="1.1" xmlns="http://www.w3.org/2000/svg" viewBox="0 0 87.74935253969215 88.44779947309166" width="87.74935253969215" height="88.44779947309166">
  <!-- svg-source:excalidraw -->
  
  <defs>
    <style class="style-fonts">
      
    </style>
    
  </defs>
  <rect x="0" y="0" width="87.74935253969215" height="88.44779947309166" fill="none"></rect><g stroke-linecap="round" transform="translate(9.999999999999545 10) rotate(0 33.874676269846304 34.2238997365458)"><path d="M67.75 34.22 C67.75 36.01, 67.61 37.82, 67.33 39.58 C67.06 41.34, 66.64 43.1, 66.09 44.8 C65.55 46.5, 64.86 48.17, 64.06 49.76 C63.26 51.35, 62.32 52.9, 61.28 54.34 C60.24 55.78, 59.08 57.16, 57.83 58.42 C56.58 59.69, 55.21 60.86, 53.79 61.91 C52.36 62.96, 50.83 63.91, 49.25 64.72 C47.68 65.53, 46.02 66.22, 44.34 66.77 C42.66 67.32, 40.92 67.75, 39.17 68.03 C37.43 68.31, 35.64 68.45, 33.87 68.45 C32.11 68.45, 30.32 68.31, 28.58 68.03 C26.83 67.75, 25.09 67.32, 23.41 66.77 C21.73 66.22, 20.07 65.53, 18.5 64.72 C16.92 63.91, 15.39 62.96, 13.96 61.91 C12.53 60.86, 11.17 59.69, 9.92 58.42 C8.67 57.16, 7.51 55.78, 6.47 54.34 C5.43 52.9, 4.49 51.35, 3.69 49.76 C2.89 48.17, 2.2 46.5, 1.66 44.8 C1.11 43.1, 0.69 41.34, 0.42 39.58 C0.14 37.82, 0 36.01, 0 34.22 C0 32.44, 0.14 30.63, 0.42 28.87 C0.69 27.11, 1.11 25.35, 1.66 23.65 C2.2 21.95, 2.89 20.28, 3.69 18.69 C4.49 17.1, 5.43 15.55, 6.47 14.11 C7.51 12.66, 8.67 11.29, 9.92 10.02 C11.17 8.76, 12.53 7.59, 13.96 6.54 C15.39 5.49, 16.92 4.54, 18.5 3.73 C20.07 2.92, 21.73 2.23, 23.41 1.68 C25.09 1.12, 26.83 0.7, 28.58 0.42 C30.32 0.14, 32.11 0, 33.87 0 C35.64 0, 37.43 0.14, 39.17 0.42 C40.92 0.7, 42.66 1.12, 44.34 1.68 C46.02 2.23, 47.68 2.92, 49.25 3.73 C50.83 4.54, 52.36 5.49, 53.79 6.54 C55.21 7.59, 56.58 8.76, 57.83 10.02 C59.08 11.29, 60.24 12.66, 61.28 14.11 C62.32 15.55, 63.26 17.1, 64.06 18.69 C64.86 20.28, 65.55 21.95, 66.09 23.65 C66.64 25.35, 67.06 27.11, 67.33 28.87 C67.61 30.63, 67.68 33.33, 67.75 34.22 C67.82 35.12, 67.82 33.33, 67.75 34.22" stroke="none" stroke-width="0" fill="none"></path><path d="M67.75 34.22 C67.75 36.01, 67.61 37.82, 67.33 39.58 C67.06 41.34, 66.64 43.1, 66.09 44.8 C65.55 46.5, 64.86 48.17, 64.06 49.76 C63.26 51.35, 62.32 52.9, 61.28 54.34 C60.24 55.78, 59.08 57.16, 57.83 58.42 C56.58 59.69, 55.21 60.86, 53.79 61.91 C52.36 62.96, 50.83 63.91, 49.25 64.72 C47.68 65.53, 46.02 66.22, 44.34 66.77 C42.66 67.32, 40.92 67.75, 39.17 68.03 C37.43 68.31, 35.64 68.45, 33.87 68.45 C32.11 68.45, 30.32 68.31, 28.58 68.03 C26.83 67.75, 25.09 67.32, 23.41 66.77 C21.73 66.22, 20.07 65.53, 18.5 64.72 C16.92 63.91, 15.39 62.96, 13.96 61.91 C12.53 60.86, 11.17 59.69, 9.92 58.42 C8.67 57.16, 7.51 55.78, 6.47 54.34 C5.43 52.9, 4.49 51.35, 3.69 49.76 C2.89 48.17, 2.2 46.5, 1.66 44.8 C1.11 43.1, 0.69 41.34, 0.42 39.58 C0.14 37.82, 0 36.01, 0 34.22 C0 32.44, 0.14 30.63, 0.42 28.87 C0.69 27.11, 1.11 25.35, 1.66 23.65 C2.2 21.95, 2.89 20.28, 3.69 18.69 C4.49 17.1, 5.43 15.55, 6.47 14.11 C7.51 12.66, 8.67 11.29, 9.92 10.02 C11.17 8.76, 12.53 7.59, 13.96 6.54 C15.39 5.49, 16.92 4.54, 18.5 3.73 C20.07 2.92, 21.73 2.23, 23.41 1.68 C25.09 1.12, 26.83 0.7, 28.58 0.42 C30.32 0.14, 32.11 0, 33.87 0 C35.64 0, 37.43 0.14, 39.17 0.42 C40.92 0.7, 42.66 1.12, 44.34 1.68 C46.02 2.23, 47.68 2.92, 49.25 3.73 C50.83 4.54, 52.36 5.49, 53.79 6.54 C55.21 7.59, 56.58 8.76, 57.83 10.02 C59.08 11.29, 60.24 12.66, 61.28 14.11 C62.32 15.55, 63.26 17.1, 64.06 18.69 C64.86 20.28, 65.55 21.95, 66.09 23.65 C66.64 25.35, 67.06 27.11, 67.33 28.87 C67.61 30.63, 67.68 33.33, 67.75 34.22 C67.82 35.12, 67.82 33.33, 67.75 34.22" stroke="none" stroke-width="1" fill="none"></path></g><g stroke-linecap="round"><g transform="translate(33.57556868035272 22.346027776399637) rotate(0 15.770519526875887 20.383668926303642)"><path d="M0 0 C3.4 9.22, 6.79 18.44, 15.02 40.77 M0 0 C6 16.28, 12 32.57, 15.02 40.77 M15.02 40.77 C18.49 32.25, 21.96 23.74, 31.54 0.21 M15.02 40.77 C18.86 31.33, 22.71 21.9, 31.54 0.21" stroke="#f2b33d" stroke-width="4" fill="none"></path></g></g><mask></mask><g stroke-linecap="round"><g transform="translate(33.39279898659652 22.37783027915839) rotate(0 2.2211300383844446 20.413460098363373)"><path d="M0 0 C-3.71 0.03, -7.41 0.06, -10.76 0.09 M0 0 C-3.71 0.03, -7.42 0.06, -10.76 0.09 M-10.76 0.09 C-7.21 9.82, -3.66 19.55, 3.96 40.43 M-10.76 0.09 C-5.69 13.99, -0.62 27.88, 3.96 40.43 M3.96 40.43 C8.03 40.58, 12.1 40.72, 15.2 40.83 M3.96 40.43 C8.4 40.59, 12.84 40.74, 15.2 40.83" stroke="#f2b33d" stroke-width="4" fill="none"></path></g></g><mask></mask><g stroke-linecap="round"><g transform="translate(30.226474121584488 33.50367650839166) rotate(0 1.9191131594186572 -0.0456941664933197)"><path d="M0 0 C0.84 -0.02, 1.68 -0.04, 3.84 -0.09 M0 0 C1.33 -0.03, 2.66 -0.06, 3.84 -0.09" stroke="#f2b33d" stroke-width="1" fill="none"></path></g></g><mask></mask><g stroke-linecap="round"><g transform="translate(33.69481597475942 42.72969668118162) rotate(0 1.9191131594186572 -0.0456941664933197)"><path d="M0 0 C1.05 -0.02, 2.1 -0.05, 3.84 -0.09 M0 0 C0.92 -0.02, 1.83 -0.04, 3.84 -0.09" stroke="#f2b33d" stroke-width="1" fill="none"></path></g></g><mask></mask><g stroke-linecap="round"><g transform="translate(37.533041474500806 52.00938466651576) rotate(0 1.9191131594186572 -0.0456941664933197)"><path d="M0 0 C1.46 -0.03, 2.91 -0.07, 3.84 -0.09 M0 0 C0.88 -0.02, 1.75 -0.04, 3.84 -0.09" stroke="#f2b33d" stroke-width="1" fill="none"></path></g></g><mask></mask><g stroke-linecap="round" transform="translate(27.598724918685093 37.84452384269434) rotate(0 0.9138624132158384 0.9595574512363783)"><path d="M1.83 0.96 C1.83 1.02, 1.82 1.07, 1.81 1.13 C1.8 1.18, 1.79 1.24, 1.77 1.29 C1.75 1.34, 1.73 1.39, 1.71 1.44 C1.68 1.49, 1.65 1.53, 1.61 1.58 C1.58 1.62, 1.54 1.66, 1.5 1.69 C1.46 1.73, 1.42 1.76, 1.37 1.79 C1.32 1.82, 1.28 1.84, 1.23 1.86 C1.18 1.88, 1.12 1.89, 1.07 1.9 C1.02 1.91, 0.97 1.92, 0.91 1.92 C0.86 1.92, 0.81 1.91, 0.76 1.9 C0.7 1.89, 0.65 1.88, 0.6 1.86 C0.55 1.84, 0.5 1.82, 0.46 1.79 C0.41 1.76, 0.37 1.73, 0.33 1.69 C0.29 1.66, 0.25 1.62, 0.21 1.58 C0.18 1.53, 0.15 1.49, 0.12 1.44 C0.1 1.39, 0.07 1.34, 0.06 1.29 C0.04 1.24, 0.02 1.18, 0.01 1.13 C0 1.07, 0 1.02, 0 0.96 C0 0.9, 0 0.85, 0.01 0.79 C0.02 0.74, 0.04 0.68, 0.06 0.63 C0.07 0.58, 0.1 0.53, 0.12 0.48 C0.15 0.43, 0.18 0.39, 0.21 0.34 C0.25 0.3, 0.29 0.26, 0.33 0.22 C0.37 0.19, 0.41 0.16, 0.46 0.13 C0.5 0.1, 0.55 0.08, 0.6 0.06 C0.65 0.04, 0.7 0.02, 0.76 0.01 C0.81 0, 0.86 0, 0.91 0 C0.97 0, 1.02 0, 1.07 0.01 C1.12 0.02, 1.18 0.04, 1.23 0.06 C1.28 0.08, 1.32 0.1, 1.37 0.13 C1.42 0.16, 1.46 0.19, 1.5 0.22 C1.54 0.26, 1.58 0.3, 1.61 0.34 C1.65 0.39, 1.68 0.43, 1.71 0.48 C1.73 0.53, 1.75 0.58, 1.77 0.63 C1.79 0.68, 1.8 0.74, 1.81 0.79 C1.82 0.85, 1.83 0.93, 1.83 0.96 C1.83 0.99, 1.83 0.93, 1.83 0.96" stroke="none" stroke-width="0" fill="#ffffff"></path><path d="M1.83 0.96 C1.83 1.02, 1.82 1.07, 1.81 1.13 C1.8 1.18, 1.79 1.24, 1.77 1.29 C1.75 1.34, 1.73 1.39, 1.71 1.44 C1.68 1.49, 1.65 1.53, 1.61 1.58 C1.58 1.62, 1.54 1.66, 1.5 1.69 C1.46 1.73, 1.42 1.76, 1.37 1.79 C1.32 1.82, 1.28 1.84, 1.23 1.86 C1.18 1.88, 1.12 1.89, 1.07 1.9 C1.02 1.91, 0.97 1.92, 0.91 1.92 C0.86 1.92, 0.81 1.91, 0.76 1.9 C0.7 1.89, 0.65 1.88, 0.6 1.86 C0.55 1.84, 0.5 1.82, 0.46 1.79 C0.41 1.76, 0.37 1.73, 0.33 1.69 C0.29 1.66, 0.25 1.62, 0.21 1.58 C0.18 1.53, 0.15 1.49, 0.12 1.44 C0.1 1.39, 0.07 1.34, 0.06 1.29 C0.04 1.24, 0.02 1.18, 0.01 1.13 C0 1.07, 0 1.02, 0 0.96 C0 0.9, 0 0.85, 0.01 0.79 C0.02 0.74, 0.04 0.68, 0.06 0.63 C0.07 0.58, 0.1 0.53, 0.12 0.48 C0.15 0.43, 0.18 0.39, 0.21 0.34 C0.25 0.3, 0.29 0.26, 0.33 0.22 C0.37 0.19, 0.41 0.16, 0.46 0.13 C0.5 0.1, 0.55 0.08, 0.6 0.06 C0.65 0.04, 0.7 0.02, 0.76 0.01 C0.81 0, 0.86 0, 0.91 0 C0.97 0, 1.02 0, 1.07 0.01 C1.12 0.02, 1.18 0.04, 1.23 0.06 C1.28 0.08, 1.32 0.1, 1.37 0.13 C1.42 0.16, 1.46 0.19, 1.5 0.22 C1.54 0.26, 1.58 0.3, 1.61 0.34 C1.65 0.39, 1.68 0.43, 1.71 0.48 C1.73 0.53, 1.75 0.58, 1.77 0.63 C1.79 0.68, 1.8 0.74, 1.81 0.79 C1.82 0.85, 1.83 0.93, 1.83 0.96 C1.83 0.99, 1.83 0.93, 1.83 0.96" stroke="#ffffff" stroke-width="1" fill="none"></path></g><g stroke-linecap="round" transform="translate(27.502054709043932 37.77625722174116) rotate(339.88737424466717 1.010539595074306 0.9821299056961266)"><path d="M0 0 L2.02 0 L2.02 1.96 L0 1.96" stroke="none" stroke-width="0" fill="#1e1e1e"></path><path d="M0 0 C0.69 0, 1.38 0, 2.02 0 M0 0 C0.46 0, 0.92 0, 2.02 0 M2.02 0 C2.02 0.55, 2.02 1.1, 2.02 1.96 M2.02 0 C2.02 0.57, 2.02 1.14, 2.02 1.96 M2.02 1.96 C1.49 1.96, 0.96 1.96, 0 1.96 M2.02 1.96 C1.38 1.96, 0.73 1.96, 0 1.96 M0 1.96 C0 1.23, 0 0.49, 0 0 M0 1.96 C0 1.52, 0 1.07, 0 0" stroke="#1e1e1e" stroke-width="1" fill="none"></path></g><g stroke-linecap="round" transform="translate(28.872841356650042 41.568785887976446) rotate(339.88737424466717 1.010539595074306 0.9821299056961266)"><path d="M0 0 L2.02 0 L2.02 1.96 L0 1.96" stroke="none" stroke-width="0" fill="#1e1e1e"></path><path d="M0 0 C0.42 0, 0.85 0, 2.02 0 M0 0 C0.47 0, 0.94 0, 2.02 0 M2.02 0 C2.02 0.44, 2.02 0.87, 2.02 1.96 M2.02 0 C2.02 0.42, 2.02 0.84, 2.02 1.96 M2.02 1.96 C1.56 1.96, 1.1 1.96, 0 1.96 M2.02 1.96 C1.36 1.96, 0.71 1.96, 0 1.96 M0 1.96 C0 1.5, 0 1.03, 0 0 M0 1.96 C0 1.4, 0 0.84, 0 0" stroke="#1e1e1e" stroke-width="1" fill="none"></path></g><g stroke-linecap="round" transform="translate(30.06086528271817 45.04146933319214) rotate(339.88737424466717 1.010539595074306 0.9821299056961266)"><path d="M0 0 L2.02 0 L2.02 1.96 L0 1.96" stroke="none" stroke-width="0" fill="#1e1e1e"></path><path d="M0 0 C0.49 0, 0.97 0, 2.02 0 M0 0 C0.7 0, 1.39 0, 2.02 0 M2.02 0 C2.02 0.71, 2.02 1.42, 2.02 1.96 M2.02 0 C2.02 0.78, 2.02 1.55, 2.02 1.96 M2.02 1.96 C1.24 1.96, 0.47 1.96, 0 1.96 M2.02 1.96 C1.24 1.96, 0.45 1.96, 0 1.96 M0 1.96 C0 1.34, 0 0.72, 0 0 M0 1.96 C0 1.56, 0 1.15, 0 0" stroke="#1e1e1e" stroke-width="1" fill="none"></path></g><g stroke-linecap="round" transform="translate(31.340274055663485 48.536982431112165) rotate(339.88737424466717 1.010539595074306 0.9821299056961266)"><path d="M0 0 L2.02 0 L2.02 1.96 L0 1.96" stroke="none" stroke-width="0" fill="#1e1e1e"></path><path d="M0 0 C0.44 0, 0.89 0, 2.02 0 M0 0 C0.42 0, 0.85 0, 2.02 0 M2.02 0 C2.02 0.49, 2.02 0.98, 2.02 1.96 M2.02 0 C2.02 0.62, 2.02 1.23, 2.02 1.96 M2.02 1.96 C1.26 1.96, 0.5 1.96, 0 1.96 M2.02 1.96 C1.56 1.96, 1.1 1.96, 0 1.96 M0 1.96 C0 1.18, 0 0.39, 0 0 M0 1.96 C0 1.45, 0 0.94, 0 0" stroke="#1e1e1e" stroke-width="1" fill="none"></path></g><g stroke-linecap="round" transform="translate(32.711060703270505 52.32951109734745) rotate(339.88737424466717 1.010539595074306 0.9821299056961266)"><path d="M0 0 L2.02 0 L2.02 1.96 L0 1.96" stroke="none" stroke-width="0" fill="#1e1e1e"></path><path d="M0 0 C0.45 0, 0.9 0, 2.02 0 M0 0 C0.61 0, 1.21 0, 2.02 0 M2.02 0 C2.02 0.7, 2.02 1.39, 2.02 1.96 M2.02 0 C2.02 0.57, 2.02 1.14, 2.02 1.96 M2.02 1.96 C1.38 1.96, 0.74 1.96, 0 1.96 M2.02 1.96 C1.39 1.96, 0.75 1.96, 0 1.96 M0 1.96 C0 1.23, 0 0.49, 0 0 M0 1.96 C0 1.41, 0 0.85, 0 0" stroke="#1e1e1e" stroke-width="1" fill="none"></path></g><g stroke-linecap="round" transform="translate(33.97318019185741 55.733618831873514) rotate(339.88737424466717 1.0051184191088396 0.9768611373413307)"><path d="M0 0 L2.01 0 L2.01 1.95 L0 1.95" stroke="none" stroke-width="0" fill="#1e1e1e"></path><path d="M0 0 C0.43 0, 0.86 0, 2.01 0 M0 0 C0.55 0, 1.1 0, 2.01 0 M2.01 0 C2.01 0.73, 2.01 1.46, 2.01 1.95 M2.01 0 C2.01 0.67, 2.01 1.34, 2.01 1.95 M2.01 1.95 C1.27 1.95, 0.53 1.95, 0 1.95 M2.01 1.95 C1.52 1.95, 1.04 1.95, 0 1.95 M0 1.95 C0 1.33, 0 0.7, 0 0 M0 1.95 C0 1.27, 0 0.6, 0 0" stroke="#1e1e1e" stroke-width="1" fill="none"></path></g><g stroke-linecap="round" transform="translate(23.57245051554537 27.061215720538257) rotate(339.88737424466717 1.010539595074306 0.9821299056961266)"><path d="M0 0 L2.02 0 L2.02 1.96 L0 1.96" stroke="none" stroke-width="0" fill="#1e1e1e"></path><path d="M0 0 C0.67 0, 1.34 0, 2.02 0 M0 0 C0.48 0, 0.95 0, 2.02 0 M2.02 0 C2.02 0.41, 2.02 0.82, 2.02 1.96 M2.02 0 C2.02 0.69, 2.02 1.38, 2.02 1.96 M2.02 1.96 C1.53 1.96, 1.05 1.96, 0 1.96 M2.02 1.96 C1.26 1.96, 0.49 1.96, 0 1.96 M0 1.96 C0 1.4, 0 0.84, 0 0 M0 1.96 C0 1.34, 0 0.71, 0 0" stroke="#1e1e1e" stroke-width="1" fill="none"></path></g><g stroke-linecap="round" transform="translate(24.94323716315148 30.853744386773542) rotate(339.88737424466717 1.010539595074306 0.9821299056961266)"><path d="M0 0 L2.02 0 L2.02 1.96 L0 1.96" stroke="none" stroke-width="0" fill="#1e1e1e"></path><path d="M0 0 C0.57 0, 1.14 0, 2.02 0 M0 0 C0.59 0, 1.18 0, 2.02 0 M2.02 0 C2.02 0.51, 2.02 1.03, 2.02 1.96 M2.02 0 C2.02 0.63, 2.02 1.25, 2.02 1.96 M2.02 1.96 C1.26 1.96, 0.51 1.96, 0 1.96 M2.02 1.96 C1.56 1.96, 1.11 1.96, 0 1.96 M0 1.96 C0 1.19, 0 0.41, 0 0 M0 1.96 C0 1.35, 0 0.74, 0 0" stroke="#1e1e1e" stroke-width="1" fill="none"></path></g><g stroke-linecap="round" transform="translate(26.131261089219606 34.32642783198901) rotate(339.88737424466717 1.010539595074306 0.9821299056961266)"><path d="M0 0 L2.02 0 L2.02 1.96 L0 1.96" stroke="none" stroke-width="0" fill="#1e1e1e"></path><path d="M0 0 C0.45 0, 0.9 0, 2.02 0 M0 0 C0.43 0, 0.86 0, 2.02 0 M2.02 0 C2.02 0.45, 2.02 0.9, 2.02 1.96 M2.02 0 C2.02 0.64, 2.02 1.28, 2.02 1.96 M2.02 1.96 C1.54 1.96, 1.06 1.96, 0 1.96 M2.02 1.96 C1.44 1.96, 0.87 1.96, 0 1.96 M0 1.96 C0 1.5, 0 1.04, 0 0 M0 1.96 C0 1.47, 0 0.97, 0 0" stroke="#1e1e1e" stroke-width="1" fill="none"></path></g><g stroke-linecap="round" transform="translate(33.97319059407755 25.147115916351368) rotate(339.88737424466717 1.0051184191088396 0.9768611373413307)"><path d="M0 0 L2.01 0 L2.01 1.95 L0 1.95" stroke="none" stroke-width="0" fill="#1e1e1e"></path><path d="M0 0 C0.73 0, 1.46 0, 2.01 0 M0 0 C0.79 0, 1.59 0, 2.01 0 M2.01 0 C2.01 0.75, 2.01 1.5, 2.01 1.95 M2.01 0 C2.01 0.76, 2.01 1.52, 2.01 1.95 M2.01 1.95 C1.37 1.95, 0.74 1.95, 0 1.95 M2.01 1.95 C1.59 1.95, 1.17 1.95, 0 1.95 M0 1.95 C0 1.3, 0 0.65, 0 0 M0 1.95 C0 1.29, 0 0.63, 0 0" stroke="#1e1e1e" stroke-width="1" fill="none"></path></g><g stroke-linecap="round" transform="translate(35.3366234718128 28.91929905099721) rotate(339.88737424466717 1.0051184191088396 0.9768611373413307)"><path d="M0 0 L2.01 0 L2.01 1.95 L0 1.95" stroke="none" stroke-width="0" fill="#1e1e1e"></path><path d="M0 0 C0.5 0, 1 0, 2.01 0 M0 0 C0.63 0, 1.26 0, 2.01 0 M2.01 0 C2.01 0.74, 2.01 1.47, 2.01 1.95 M2.01 0 C2.01 0.44, 2.01 0.89, 2.01 1.95 M2.01 1.95 C1.21 1.95, 0.4 1.95, 0 1.95 M2.01 1.95 C1.49 1.95, 0.96 1.95, 0 1.95 M0 1.95 C0 1.24, 0 0.52, 0 0 M0 1.95 C0 1.19, 0 0.42, 0 0" stroke="#1e1e1e" stroke-width="1" fill="none"></path></g><g stroke-linecap="round" transform="translate(36.518274083281085 32.37335281745413) rotate(339.88737424466717 1.0051184191088396 0.9768611373413307)"><path d="M0 0 L2.01 0 L2.01 1.95 L0 1.95" stroke="none" stroke-width="0" fill="#1e1e1e"></path><path d="M0 0 C0.71 0, 1.42 0, 2.01 0 M0 0 C0.58 0, 1.17 0, 2.01 0 M2.01 0 C2.01 0.62, 2.01 1.24, 2.01 1.95 M2.01 0 C2.01 0.61, 2.01 1.23, 2.01 1.95 M2.01 1.95 C1.25 1.95, 0.5 1.95, 0 1.95 M2.01 1.95 C1.44 1.95, 0.87 1.95, 0 1.95 M0 1.95 C0 1.49, 0 1.02, 0 0 M0 1.95 C0 1.3, 0 0.66, 0 0" stroke="#1e1e1e" stroke-width="1" fill="none"></path></g><g stroke-linecap="round" transform="translate(37.790819295290476 35.600154479229445) rotate(339.88737424466717 1.0051184191088396 0.9768611373413307)"><path d="M0 0 L2.01 0 L2.01 1.95 L0 1.95" stroke="none" stroke-width="0" fill="#1e1e1e"></path><path d="M0 0 C0.75 0, 1.5 0, 2.01 0 M0 0 C0.69 0, 1.38 0, 2.01 0 M2.01 0 C2.01 0.72, 2.01 1.44, 2.01 1.95 M2.01 0 C2.01 0.47, 2.01 0.94, 2.01 1.95 M2.01 1.95 C1.37 1.95, 0.73 1.95, 0 1.95 M2.01 1.95 C1.31 1.95, 0.61 1.95, 0 1.95 M0 1.95 C0 1.41, 0 0.87, 0 0 M0 1.95 C0 1.33, 0 0.71, 0 0" stroke="#1e1e1e" stroke-width="1" fill="none"></path></g><g stroke-linecap="round" transform="translate(39.154252173025725 39.372337613875175) rotate(339.88737424466717 1.0051184191088396 0.9768611373413307)"><path d="M0 0 L2.01 0 L2.01 1.95 L0 1.95" stroke="none" stroke-width="0" fill="#1e1e1e"></path><path d="M0 0 C0.42 0, 0.83 0, 2.01 0 M0 0 C0.71 0, 1.41 0, 2.01 0 M2.01 0 C2.01 0.47, 2.01 0.94, 2.01 1.95 M2.01 0 C2.01 0.74, 2.01 1.48, 2.01 1.95 M2.01 1.95 C1.44 1.95, 0.86 1.95, 0 1.95 M2.01 1.95 C1.37 1.95, 0.73 1.95, 0 1.95 M0 1.95 C0 1.32, 0 0.69, 0 0 M0 1.95 C0 1.52, 0 1.09, 0 0" stroke="#1e1e1e" stroke-width="1" fill="none"></path></g><g stroke-linecap="round" transform="translate(40.33590278449401 42.8263913803321) rotate(339.88737424466717 1.0051184191088396 0.9768611373413307)"><path d="M0 0 L2.01 0 L2.01 1.95 L0 1.95" stroke="none" stroke-width="0" fill="#1e1e1e"></path><path d="M0 0 C0.53 0, 1.05 0, 2.01 0 M0 0 C0.64 0, 1.28 0, 2.01 0 M2.01 0 C2.01 0.73, 2.01 1.46, 2.01 1.95 M2.01 0 C2.01 0.44, 2.01 0.88, 2.01 1.95 M2.01 1.95 C1.21 1.95, 0.42 1.95, 0 1.95 M2.01 1.95 C1.38 1.95, 0.76 1.95, 0 1.95 M0 1.95 C0 1.32, 0 0.69, 0 0 M0 1.95 C0 1.22, 0 0.49, 0 0" stroke="#1e1e1e" stroke-width="1" fill="none"></path></g><g stroke-linecap="round" transform="translate(41.60844799650249 46.053189574700696) rotate(339.88737424466717 1.0051184191088396 0.9768611373413307)"><path d="M0 0 L2.01 0 L2.01 1.95 L0 1.95" stroke="none" stroke-width="0" fill="#1e1e1e"></path><path d="M0 0 C0.46 0, 0.92 0, 2.01 0 M0 0 C0.65 0, 1.31 0, 2.01 0 M2.01 0 C2.01 0.47, 2.01 0.93, 2.01 1.95 M2.01 0 C2.01 0.56, 2.01 1.12, 2.01 1.95 M2.01 1.95 C1.54 1.95, 1.07 1.95, 0 1.95 M2.01 1.95 C1.5 1.95, 0.99 1.95, 0 1.95 M0 1.95 C0 1.54, 0 1.13, 0 0 M0 1.95 C0 1.47, 0 0.99, 0 0" stroke="#1e1e1e" stroke-width="1" fill="none"></path></g><g stroke-linecap="round" transform="translate(42.97188087423865 49.82537270934654) rotate(339.88737424466717 1.0051184191088396 0.9768611373413307)"><path d="M0 0 L2.01 0 L2.01 1.95 L0 1.95" stroke="none" stroke-width="0" fill="#1e1e1e"></path><path d="M0 0 C0.77 0, 1.55 0, 2.01 0 M0 0 C0.78 0, 1.56 0, 2.01 0 M2.01 0 C2.01 0.62, 2.01 1.24, 2.01 1.95 M2.01 0 C2.01 0.41, 2.01 0.81, 2.01 1.95 M2.01 1.95 C1.34 1.95, 0.67 1.95, 0 1.95 M2.01 1.95 C1.33 1.95, 0.65 1.95, 0 1.95 M0 1.95 C0 1.35, 0 0.75, 0 0 M0 1.95 C0 1.2, 0 0.45, 0 0" stroke="#1e1e1e" stroke-width="1" fill="none"></path></g><g stroke-linecap="round" transform="translate(44.153531485706026 53.27942647580335) rotate(339.88737424466717 1.0051184191088396 0.9768611373413307)"><path d="M0 0 L2.01 0 L2.01 1.95 L0 1.95" stroke="none" stroke-width="0" fill="#1e1e1e"></path><path d="M0 0 C0.76 0, 1.52 0, 2.01 0 M0 0 C0.46 0, 0.91 0, 2.01 0 M2.01 0 C2.01 0.78, 2.01 1.56, 2.01 1.95 M2.01 0 C2.01 0.51, 2.01 1.02, 2.01 1.95 M2.01 1.95 C1.27 1.95, 0.54 1.95, 0 1.95 M2.01 1.95 C1.22 1.95, 0.43 1.95, 0 1.95 M0 1.95 C0 1.53, 0 1.11, 0 0 M0 1.95 C0 1.4, 0 0.85, 0 0" stroke="#1e1e1e" stroke-width="1" fill="none"></path></g><g stroke-linecap="round" transform="translate(45.42608709993556 56.57440862335261) rotate(339.88737424466717 1.0051184191088396 0.9768611373413307)"><path d="M0 0 L2.01 0 L2.01 1.95 L0 1.95" stroke="none" stroke-width="0" fill="#1e1e1e"></path><path d="M0 0 C0.64 0, 1.28 0, 2.01 0 M0 0 C0.63 0, 1.26 0, 2.01 0 M2.01 0 C2.01 0.73, 2.01 1.47, 2.01 1.95 M2.01 0 C2.01 0.55, 2.01 1.1, 2.01 1.95 M2.01 1.95 C1.53 1.95, 1.05 1.95, 0 1.95 M2.01 1.95 C1.34 1.95, 0.67 1.95, 0 1.95 M0 1.95 C0 1.18, 0 0.41, 0 0 M0 1.95 C0 1.3, 0 0.64, 0 0" stroke="#1e1e1e" stroke-width="1" fill="none"></path></g><g stroke-linecap="round" transform="translate(35.154830803324785 58.937706378882126) rotate(339.88737424466717 1.0051184191088396 0.9768611373413307)"><path d="M0 0 L2.01 0 L2.01 1.95 L0 1.95" stroke="none" stroke-width="0" fill="#1e1e1e"></path><path d="M0 0 C0.74 0, 1.49 0, 2.01 0 M0 0 C0.49 0, 0.97 0, 2.01 0 M2.01 0 C2.01 0.62, 2.01 1.25, 2.01 1.95 M2.01 0 C2.01 0.68, 2.01 1.36, 2.01 1.95 M2.01 1.95 C1.45 1.95, 0.89 1.95, 0 1.95 M2.01 1.95 C1.37 1.95, 0.73 1.95, 0 1.95 M0 1.95 C0 1.43, 0 0.9, 0 0 M0 1.95 C0 1.35, 0 0.75, 0 0" stroke="#1e1e1e" stroke-width="1" fill="none"></path></g></svg>