<svg version="1.1" xmlns="http://www.w3.org/2000/svg" viewBox="0 0 87.74935253969306 88.4477994730916" width="87.74935253969306" height="88.4477994730916">
  <!-- svg-source:excalidraw -->
  
  <defs>
    <style class="style-fonts">
      
    </style>
    
  </defs>
  <rect x="0" y="0" width="87.74935253969306" height="88.4477994730916" fill="none"></rect><g stroke-linecap="round" transform="translate(10.000000000000227 10) rotate(0 33.87467626984642 34.2238997365458)"><path d="M67.75 34.22 C67.75 36.01, 67.61 37.82, 67.33 39.58 C67.06 41.34, 66.64 43.1, 66.09 44.8 C65.55 46.5, 64.86 48.17, 64.06 49.76 C63.26 51.35, 62.32 52.9, 61.28 54.34 C60.24 55.78, 59.08 57.16, 57.83 58.42 C56.58 59.69, 55.21 60.86, 53.79 61.91 C52.36 62.96, 50.83 63.91, 49.25 64.72 C47.68 65.53, 46.02 66.22, 44.34 66.77 C42.66 67.32, 40.92 67.75, 39.17 68.03 C37.43 68.31, 35.64 68.45, 33.87 68.45 C32.11 68.45, 30.32 68.31, 28.58 68.03 C26.83 67.75, 25.09 67.32, 23.41 66.77 C21.73 66.22, 20.07 65.53, 18.5 64.72 C16.92 63.91, 15.39 62.96, 13.96 61.91 C12.53 60.86, 11.17 59.69, 9.92 58.42 C8.67 57.16, 7.51 55.78, 6.47 54.34 C5.43 52.9, 4.49 51.35, 3.69 49.76 C2.89 48.17, 2.2 46.5, 1.66 44.8 C1.11 43.1, 0.69 41.34, 0.42 39.58 C0.14 37.82, 0 36.01, 0 34.22 C0 32.44, 0.14 30.63, 0.42 28.87 C0.69 27.11, 1.11 25.35, 1.66 23.65 C2.2 21.95, 2.89 20.28, 3.69 18.69 C4.49 17.1, 5.43 15.55, 6.47 14.11 C7.51 12.66, 8.67 11.29, 9.92 10.02 C11.17 8.76, 12.53 7.59, 13.96 6.54 C15.39 5.49, 16.92 4.54, 18.5 3.73 C20.07 2.92, 21.73 2.23, 23.41 1.68 C25.09 1.12, 26.83 0.7, 28.58 0.42 C30.32 0.14, 32.11 0, 33.87 0 C35.64 0, 37.43 0.14, 39.17 0.42 C40.92 0.7, 42.66 1.12, 44.34 1.68 C46.02 2.23, 47.68 2.92, 49.25 3.73 C50.83 4.54, 52.36 5.49, 53.79 6.54 C55.21 7.59, 56.58 8.76, 57.83 10.02 C59.08 11.29, 60.24 12.66, 61.28 14.11 C62.32 15.55, 63.26 17.1, 64.06 18.69 C64.86 20.28, 65.55 21.95, 66.09 23.65 C66.64 25.35, 67.06 27.11, 67.33 28.87 C67.61 30.63, 67.68 33.33, 67.75 34.22 C67.82 35.12, 67.82 33.33, 67.75 34.22" stroke="none" stroke-width="0" fill="none"></path><path d="M67.75 34.22 C67.75 36.01, 67.61 37.82, 67.33 39.58 C67.06 41.34, 66.64 43.1, 66.09 44.8 C65.55 46.5, 64.86 48.17, 64.06 49.76 C63.26 51.35, 62.32 52.9, 61.28 54.34 C60.24 55.78, 59.08 57.16, 57.83 58.42 C56.58 59.69, 55.21 60.86, 53.79 61.91 C52.36 62.96, 50.83 63.91, 49.25 64.72 C47.68 65.53, 46.02 66.22, 44.34 66.77 C42.66 67.32, 40.92 67.75, 39.17 68.03 C37.43 68.31, 35.64 68.45, 33.87 68.45 C32.11 68.45, 30.32 68.31, 28.58 68.03 C26.83 67.75, 25.09 67.32, 23.41 66.77 C21.73 66.22, 20.07 65.53, 18.5 64.72 C16.92 63.91, 15.39 62.96, 13.96 61.91 C12.53 60.86, 11.17 59.69, 9.92 58.42 C8.67 57.16, 7.51 55.78, 6.47 54.34 C5.43 52.9, 4.49 51.35, 3.69 49.76 C2.89 48.17, 2.2 46.5, 1.66 44.8 C1.11 43.1, 0.69 41.34, 0.42 39.58 C0.14 37.82, 0 36.01, 0 34.22 C0 32.44, 0.14 30.63, 0.42 28.87 C0.69 27.11, 1.11 25.35, 1.66 23.65 C2.2 21.95, 2.89 20.28, 3.69 18.69 C4.49 17.1, 5.43 15.55, 6.47 14.11 C7.51 12.66, 8.67 11.29, 9.92 10.02 C11.17 8.76, 12.53 7.59, 13.96 6.54 C15.39 5.49, 16.92 4.54, 18.5 3.73 C20.07 2.92, 21.73 2.23, 23.41 1.68 C25.09 1.12, 26.83 0.7, 28.58 0.42 C30.32 0.14, 32.11 0, 33.87 0 C35.64 0, 37.43 0.14, 39.17 0.42 C40.92 0.7, 42.66 1.12, 44.34 1.68 C46.02 2.23, 47.68 2.92, 49.25 3.73 C50.83 4.54, 52.36 5.49, 53.79 6.54 C55.21 7.59, 56.58 8.76, 57.83 10.02 C59.08 11.29, 60.24 12.66, 61.28 14.11 C62.32 15.55, 63.26 17.1, 64.06 18.69 C64.86 20.28, 65.55 21.95, 66.09 23.65 C66.64 25.35, 67.06 27.11, 67.33 28.87 C67.61 30.63, 67.68 33.33, 67.75 34.22 C67.82 35.12, 67.82 33.33, 67.75 34.22" stroke="none" stroke-width="1" fill="none"></path></g><g stroke-linecap="round"><g transform="translate(33.57556953500375 26.082369264624276) rotate(0 15.770519526875887 20.383668926303642)"><path d="M0 0 C4.48 12.16, 8.96 24.31, 15.02 40.77 M0 0 C4.25 11.54, 8.5 23.08, 15.02 40.77 M15.02 40.77 C19.34 30.17, 23.65 19.58, 31.54 0.21 M15.02 40.77 C20.99 26.1, 26.97 11.44, 31.54 0.21" stroke="#40011e" stroke-width="4" fill="none"></path></g></g><mask></mask><g stroke-linecap="round"><g transform="translate(33.39279984124755 26.114171767383027) rotate(0 2.2211300383844446 20.413460098363387)"><path d="M0 0 C-3.79 0.03, -7.59 0.06, -10.76 0.09 M0 0 C-4.28 0.04, -8.55 0.07, -10.76 0.09 M-10.76 0.09 C-7.77 8.28, -4.78 16.48, 3.96 40.43 M-10.76 0.09 C-7.34 9.48, -3.91 18.86, 3.96 40.43 M3.96 40.43 C6.67 40.53, 9.39 40.62, 15.2 40.83 M3.96 40.43 C6.7 40.53, 9.44 40.63, 15.2 40.83" stroke="#40011e" stroke-width="4" fill="none"></path></g></g><mask></mask><g stroke-linecap="round"><g transform="translate(30.226474976235522 37.2400179966163) rotate(0 1.9191131594185435 -0.04569416649333391)"><path d="M0 0 C0.83 -0.02, 1.66 -0.04, 3.84 -0.09 M0 0 C1.24 -0.03, 2.49 -0.06, 3.84 -0.09" stroke="#40011e" stroke-width="1" fill="none"></path></g></g><mask></mask><g stroke-linecap="round"><g transform="translate(33.694816829410456 46.46603816940632) rotate(0 1.9191131594185435 -0.04569416649333391)"><path d="M0 0 C1.02 -0.02, 2.04 -0.05, 3.84 -0.09 M0 0 C0.91 -0.02, 1.82 -0.04, 3.84 -0.09" stroke="#40011e" stroke-width="1" fill="none"></path></g></g><mask></mask><g stroke-linecap="round"><g transform="translate(37.53304232915184 55.745726154740396) rotate(0 1.9191131594185435 -0.04569416649333391)"><path d="M0 0 C1.35 -0.03, 2.71 -0.06, 3.84 -0.09 M0 0 C0.81 -0.02, 1.63 -0.04, 3.84 -0.09" stroke="#40011e" stroke-width="1" fill="none"></path></g></g><mask></mask><g stroke-linecap="round" transform="translate(27.66765743034398 41.58086533091898) rotate(0 0.9138624132159521 0.959557451236364)"><path d="M1.83 0.96 C1.83 1.02, 1.82 1.07, 1.81 1.13 C1.8 1.18, 1.79 1.24, 1.77 1.29 C1.75 1.34, 1.73 1.39, 1.71 1.44 C1.68 1.49, 1.65 1.53, 1.61 1.58 C1.58 1.62, 1.54 1.66, 1.5 1.69 C1.46 1.73, 1.42 1.76, 1.37 1.79 C1.32 1.82, 1.28 1.84, 1.23 1.86 C1.18 1.88, 1.12 1.89, 1.07 1.9 C1.02 1.91, 0.97 1.92, 0.91 1.92 C0.86 1.92, 0.81 1.91, 0.76 1.9 C0.7 1.89, 0.65 1.88, 0.6 1.86 C0.55 1.84, 0.5 1.82, 0.46 1.79 C0.41 1.76, 0.37 1.73, 0.33 1.69 C0.29 1.66, 0.25 1.62, 0.21 1.58 C0.18 1.53, 0.15 1.49, 0.12 1.44 C0.1 1.39, 0.07 1.34, 0.06 1.29 C0.04 1.24, 0.02 1.18, 0.01 1.13 C0 1.07, 0 1.02, 0 0.96 C0 0.9, 0 0.85, 0.01 0.79 C0.02 0.74, 0.04 0.68, 0.06 0.63 C0.07 0.58, 0.1 0.53, 0.12 0.48 C0.15 0.43, 0.18 0.39, 0.21 0.34 C0.25 0.3, 0.29 0.26, 0.33 0.22 C0.37 0.19, 0.41 0.16, 0.46 0.13 C0.5 0.1, 0.55 0.08, 0.6 0.06 C0.65 0.04, 0.7 0.02, 0.76 0.01 C0.81 0, 0.86 0, 0.91 0 C0.97 0, 1.02 0, 1.07 0.01 C1.12 0.02, 1.18 0.04, 1.23 0.06 C1.28 0.08, 1.32 0.1, 1.37 0.13 C1.42 0.16, 1.46 0.19, 1.5 0.22 C1.54 0.26, 1.58 0.3, 1.61 0.34 C1.65 0.39, 1.68 0.43, 1.71 0.48 C1.73 0.53, 1.75 0.58, 1.77 0.63 C1.79 0.68, 1.8 0.74, 1.81 0.79 C1.82 0.85, 1.83 0.93, 1.83 0.96 C1.83 0.99, 1.83 0.93, 1.83 0.96" stroke="none" stroke-width="0" fill="#000000"></path><path d="M1.83 0.96 C1.83 1.02, 1.82 1.07, 1.81 1.13 C1.8 1.18, 1.79 1.24, 1.77 1.29 C1.75 1.34, 1.73 1.39, 1.71 1.44 C1.68 1.49, 1.65 1.53, 1.61 1.58 C1.58 1.62, 1.54 1.66, 1.5 1.69 C1.46 1.73, 1.42 1.76, 1.37 1.79 C1.32 1.82, 1.28 1.84, 1.23 1.86 C1.18 1.88, 1.12 1.89, 1.07 1.9 C1.02 1.91, 0.97 1.92, 0.91 1.92 C0.86 1.92, 0.81 1.91, 0.76 1.9 C0.7 1.89, 0.65 1.88, 0.6 1.86 C0.55 1.84, 0.5 1.82, 0.46 1.79 C0.41 1.76, 0.37 1.73, 0.33 1.69 C0.29 1.66, 0.25 1.62, 0.21 1.58 C0.18 1.53, 0.15 1.49, 0.12 1.44 C0.1 1.39, 0.07 1.34, 0.06 1.29 C0.04 1.24, 0.02 1.18, 0.01 1.13 C0 1.07, 0 1.02, 0 0.96 C0 0.9, 0 0.85, 0.01 0.79 C0.02 0.74, 0.04 0.68, 0.06 0.63 C0.07 0.58, 0.1 0.53, 0.12 0.48 C0.15 0.43, 0.18 0.39, 0.21 0.34 C0.25 0.3, 0.29 0.26, 0.33 0.22 C0.37 0.19, 0.41 0.16, 0.46 0.13 C0.5 0.1, 0.55 0.08, 0.6 0.06 C0.65 0.04, 0.7 0.02, 0.76 0.01 C0.81 0, 0.86 0, 0.91 0 C0.97 0, 1.02 0, 1.07 0.01 C1.12 0.02, 1.18 0.04, 1.23 0.06 C1.28 0.08, 1.32 0.1, 1.37 0.13 C1.42 0.16, 1.46 0.19, 1.5 0.22 C1.54 0.26, 1.58 0.3, 1.61 0.34 C1.65 0.39, 1.68 0.43, 1.71 0.48 C1.73 0.53, 1.75 0.58, 1.77 0.63 C1.79 0.68, 1.8 0.74, 1.81 0.79 C1.82 0.85, 1.83 0.93, 1.83 0.96 C1.83 0.99, 1.83 0.93, 1.83 0.96" stroke="#000000" stroke-width="1" fill="none"></path></g><g stroke-linecap="round" transform="translate(27.57098722070282 41.51259870996586) rotate(339.88737424466717 1.0105395950744196 0.9821299056961124)"><path d="M0 0 L2.02 0 L2.02 1.96 L0 1.96" stroke="none" stroke-width="0" fill="none"></path><path d="M0 0 C0.67 0, 1.34 0, 2.02 0 M0 0 C0.46 0, 0.93 0, 2.02 0 M2.02 0 C2.02 0.41, 2.02 0.82, 2.02 1.96 M2.02 0 C2.02 0.62, 2.02 1.25, 2.02 1.96 M2.02 1.96 C1.42 1.96, 0.82 1.96, 0 1.96 M2.02 1.96 C1.27 1.96, 0.51 1.96, 0 1.96 M0 1.96 C0 1.3, 0 0.63, 0 0 M0 1.96 C0 1.28, 0 0.59, 0 0" stroke="none" stroke-width="1" fill="none"></path></g><g stroke-linecap="round" transform="translate(28.941773868309838 45.30512737620114) rotate(339.88737424466717 1.0105395950744196 0.9821299056961124)"><path d="M0 0 L2.02 0 L2.02 1.96 L0 1.96" stroke="none" stroke-width="0" fill="none"></path><path d="M0 0 C0.53 0, 1.06 0, 2.02 0 M0 0 C0.73 0, 1.46 0, 2.02 0 M2.02 0 C2.02 0.48, 2.02 0.95, 2.02 1.96 M2.02 0 C2.02 0.68, 2.02 1.37, 2.02 1.96 M2.02 1.96 C1.28 1.96, 0.55 1.96, 0 1.96 M2.02 1.96 C1.5 1.96, 0.97 1.96, 0 1.96 M0 1.96 C0 1.22, 0 0.47, 0 0 M0 1.96 C0 1.44, 0 0.92, 0 0" stroke="none" stroke-width="1" fill="none"></path></g><g stroke-linecap="round" transform="translate(30.129797794377055 48.77781082141678) rotate(339.88737424466717 1.0105395950744196 0.9821299056961124)"><path d="M0 0 L2.02 0 L2.02 1.96 L0 1.96" stroke="none" stroke-width="0" fill="none"></path><path d="M0 0 C0.41 0, 0.82 0, 2.02 0 M0 0 C0.47 0, 0.94 0, 2.02 0 M2.02 0 C2.02 0.47, 2.02 0.95, 2.02 1.96 M2.02 0 C2.02 0.48, 2.02 0.96, 2.02 1.96 M2.02 1.96 C1.41 1.96, 0.79 1.96, 0 1.96 M2.02 1.96 C1.29 1.96, 0.55 1.96, 0 1.96 M0 1.96 C0 1.57, 0 1.17, 0 0 M0 1.96 C0 1.33, 0 0.7, 0 0" stroke="none" stroke-width="1" fill="none"></path></g><g stroke-linecap="round" transform="translate(31.40920656732328 52.27332391933686) rotate(339.88737424466717 1.0105395950744196 0.9821299056961124)"><path d="M0 0 L2.02 0 L2.02 1.96 L0 1.96" stroke="none" stroke-width="0" fill="none"></path><path d="M0 0 C0.49 0, 0.98 0, 2.02 0 M0 0 C0.72 0, 1.45 0, 2.02 0 M2.02 0 C2.02 0.55, 2.02 1.09, 2.02 1.96 M2.02 0 C2.02 0.71, 2.02 1.41, 2.02 1.96 M2.02 1.96 C1.37 1.96, 0.73 1.96, 0 1.96 M2.02 1.96 C1.36 1.96, 0.71 1.96, 0 1.96 M0 1.96 C0 1.39, 0 0.82, 0 0 M0 1.96 C0 1.38, 0 0.79, 0 0" stroke="none" stroke-width="1" fill="none"></path></g><g stroke-linecap="round" transform="translate(32.77999321492939 56.065852585572145) rotate(339.88737424466717 1.0105395950744196 0.9821299056961124)"><path d="M0 0 L2.02 0 L2.02 1.96 L0 1.96" stroke="none" stroke-width="0" fill="none"></path><path d="M0 0 C0.49 0, 0.98 0, 2.02 0 M0 0 C0.51 0, 1.02 0, 2.02 0 M2.02 0 C2.02 0.49, 2.02 0.98, 2.02 1.96 M2.02 0 C2.02 0.39, 2.02 0.79, 2.02 1.96 M2.02 1.96 C1.42 1.96, 0.81 1.96, 0 1.96 M2.02 1.96 C1.43 1.96, 0.85 1.96, 0 1.96 M0 1.96 C0 1.43, 0 0.89, 0 0 M0 1.96 C0 1.51, 0 1.05, 0 0" stroke="none" stroke-width="1" fill="none"></path></g><g stroke-linecap="round" transform="translate(34.042112703516295 59.46996032009815) rotate(339.88737424466717 1.0051184191088396 0.9768611373413236)"><path d="M0 0 L2.01 0 L2.01 1.95 L0 1.95" stroke="none" stroke-width="0" fill="none"></path><path d="M0 0 C0.78 0, 1.56 0, 2.01 0 M0 0 C0.56 0, 1.12 0, 2.01 0 M2.01 0 C2.01 0.45, 2.01 0.9, 2.01 1.95 M2.01 0 C2.01 0.52, 2.01 1.04, 2.01 1.95 M2.01 1.95 C1.31 1.95, 0.6 1.95, 0 1.95 M2.01 1.95 C1.31 1.95, 0.61 1.95, 0 1.95 M0 1.95 C0 1.48, 0 1.02, 0 0 M0 1.95 C0 1.47, 0 0.98, 0 0" stroke="none" stroke-width="1" fill="none"></path></g><g stroke-linecap="round" transform="translate(23.641383027204256 30.797557208762896) rotate(339.88737424466717 1.0105395950744196 0.9821299056961124)"><path d="M0 0 L2.02 0 L2.02 1.96 L0 1.96" stroke="none" stroke-width="0" fill="none"></path><path d="M0 0 C0.7 0, 1.4 0, 2.02 0 M0 0 C0.6 0, 1.2 0, 2.02 0 M2.02 0 C2.02 0.43, 2.02 0.87, 2.02 1.96 M2.02 0 C2.02 0.61, 2.02 1.21, 2.02 1.96 M2.02 1.96 C1.3 1.96, 0.57 1.96, 0 1.96 M2.02 1.96 C1.23 1.96, 0.45 1.96, 0 1.96 M0 1.96 C0 1.34, 0 0.72, 0 0 M0 1.96 C0 1.52, 0 1.07, 0 0" stroke="none" stroke-width="1" fill="none"></path></g><g stroke-linecap="round" transform="translate(25.012169674811275 34.59008587499818) rotate(339.88737424466717 1.0105395950744196 0.9821299056961124)"><path d="M0 0 L2.02 0 L2.02 1.96 L0 1.96" stroke="none" stroke-width="0" fill="none"></path><path d="M0 0 C0.42 0, 0.84 0, 2.02 0 M0 0 C0.64 0, 1.28 0, 2.02 0 M2.02 0 C2.02 0.58, 2.02 1.17, 2.02 1.96 M2.02 0 C2.02 0.73, 2.02 1.47, 2.02 1.96 M2.02 1.96 C1.34 1.96, 0.65 1.96, 0 1.96 M2.02 1.96 C1.32 1.96, 0.61 1.96, 0 1.96 M0 1.96 C0 1.57, 0 1.18, 0 0 M0 1.96 C0 1.48, 0 1, 0 0" stroke="none" stroke-width="1" fill="none"></path></g><g stroke-linecap="round" transform="translate(26.200193600878492 38.062769320213704) rotate(339.88737424466717 1.0105395950744196 0.9821299056961124)"><path d="M0 0 L2.02 0 L2.02 1.96 L0 1.96" stroke="none" stroke-width="0" fill="none"></path><path d="M0 0 C0.49 0, 0.98 0, 2.02 0 M0 0 C0.7 0, 1.41 0, 2.02 0 M2.02 0 C2.02 0.72, 2.02 1.43, 2.02 1.96 M2.02 0 C2.02 0.51, 2.02 1.02, 2.02 1.96 M2.02 1.96 C1.25 1.96, 0.48 1.96, 0 1.96 M2.02 1.96 C1.49 1.96, 0.95 1.96, 0 1.96 M0 1.96 C0 1.34, 0 0.71, 0 0 M0 1.96 C0 1.52, 0 1.07, 0 0" stroke="none" stroke-width="1" fill="none"></path></g><g stroke-linecap="round" transform="translate(34.04212310573644 28.883457404576006) rotate(339.88737424466717 1.0051184191088396 0.9768611373413236)"><path d="M0 0 L2.01 0 L2.01 1.95 L0 1.95" stroke="none" stroke-width="0" fill="none"></path><path d="M0 0 C0.49 0, 0.97 0, 2.01 0 M0 0 C0.49 0, 0.98 0, 2.01 0 M2.01 0 C2.01 0.59, 2.01 1.19, 2.01 1.95 M2.01 0 C2.01 0.71, 2.01 1.42, 2.01 1.95 M2.01 1.95 C1.61 1.95, 1.2 1.95, 0 1.95 M2.01 1.95 C1.37 1.95, 0.72 1.95, 0 1.95 M0 1.95 C0 1.22, 0 0.5, 0 0 M0 1.95 C0 1.18, 0 0.4, 0 0" stroke="none" stroke-width="1" fill="none"></path></g><g stroke-linecap="round" transform="translate(35.405555983472595 32.65564053922185) rotate(339.88737424466717 1.0051184191088396 0.9768611373413236)"><path d="M0 0 L2.01 0 L2.01 1.95 L0 1.95" stroke="none" stroke-width="0" fill="none"></path><path d="M0 0 C0.56 0, 1.12 0, 2.01 0 M0 0 C0.72 0, 1.45 0, 2.01 0 M2.01 0 C2.01 0.63, 2.01 1.25, 2.01 1.95 M2.01 0 C2.01 0.64, 2.01 1.27, 2.01 1.95 M2.01 1.95 C1.42 1.95, 0.84 1.95, 0 1.95 M2.01 1.95 C1.41 1.95, 0.81 1.95, 0 1.95 M0 1.95 C0 1.38, 0 0.81, 0 0 M0 1.95 C0 1.32, 0 0.68, 0 0" stroke="none" stroke-width="1" fill="none"></path></g><g stroke-linecap="round" transform="translate(36.58720659494088 36.10969430567877) rotate(339.88737424466717 1.0051184191088396 0.9768611373413236)"><path d="M0 0 L2.01 0 L2.01 1.95 L0 1.95" stroke="none" stroke-width="0" fill="none"></path><path d="M0 0 C0.5 0, 1 0, 2.01 0 M0 0 C0.4 0, 0.81 0, 2.01 0 M2.01 0 C2.01 0.58, 2.01 1.17, 2.01 1.95 M2.01 0 C2.01 0.57, 2.01 1.14, 2.01 1.95 M2.01 1.95 C1.46 1.95, 0.91 1.95, 0 1.95 M2.01 1.95 C1.54 1.95, 1.08 1.95, 0 1.95 M0 1.95 C0 1.21, 0 0.46, 0 0 M0 1.95 C0 1.21, 0 0.46, 0 0" stroke="none" stroke-width="1" fill="none"></path></g><g stroke-linecap="round" transform="translate(37.85975180694936 39.336495967454084) rotate(339.88737424466717 1.0051184191088396 0.9768611373413238)"><path d="M0 0 L2.01 0 L2.01 1.95 L0 1.95" stroke="none" stroke-width="0" fill="none"></path><path d="M0 0 C0.46 0, 0.93 0, 2.01 0 M0 0 C0.54 0, 1.07 0, 2.01 0 M2.01 0 C2.01 0.68, 2.01 1.37, 2.01 1.95 M2.01 0 C2.01 0.68, 2.01 1.36, 2.01 1.95 M2.01 1.95 C1.53 1.95, 1.04 1.95, 0 1.95 M2.01 1.95 C1.51 1.95, 1.01 1.95, 0 1.95 M0 1.95 C0 1.42, 0 0.88, 0 0 M0 1.95 C0 1.19, 0 0.43, 0 0" stroke="none" stroke-width="1" fill="none"></path></g><g stroke-linecap="round" transform="translate(39.22318468468461 43.10867910209987) rotate(339.88737424466717 1.0051184191088396 0.9768611373413238)"><path d="M0 0 L2.01 0 L2.01 1.95 L0 1.95" stroke="none" stroke-width="0" fill="none"></path><path d="M0 0 C0.44 0, 0.89 0, 2.01 0 M0 0 C0.62 0, 1.24 0, 2.01 0 M2.01 0 C2.01 0.7, 2.01 1.4, 2.01 1.95 M2.01 0 C2.01 0.76, 2.01 1.52, 2.01 1.95 M2.01 1.95 C1.37 1.95, 0.74 1.95, 0 1.95 M2.01 1.95 C1.55 1.95, 1.09 1.95, 0 1.95 M0 1.95 C0 1.41, 0 0.87, 0 0 M0 1.95 C0 1.44, 0 0.93, 0 0" stroke="none" stroke-width="1" fill="none"></path></g><g stroke-linecap="round" transform="translate(40.404835296152896 46.562732868556736) rotate(339.88737424466717 1.0051184191088396 0.9768611373413238)"><path d="M0 0 L2.01 0 L2.01 1.95 L0 1.95" stroke="none" stroke-width="0" fill="none"></path><path d="M0 0 C0.6 0, 1.19 0, 2.01 0 M0 0 C0.75 0, 1.5 0, 2.01 0 M2.01 0 C2.01 0.66, 2.01 1.32, 2.01 1.95 M2.01 0 C2.01 0.68, 2.01 1.36, 2.01 1.95 M2.01 1.95 C1.61 1.95, 1.2 1.95, 0 1.95 M2.01 1.95 C1.52 1.95, 1.02 1.95, 0 1.95 M0 1.95 C0 1.32, 0 0.68, 0 0 M0 1.95 C0 1.44, 0 0.92, 0 0" stroke="none" stroke-width="1" fill="none"></path></g><g stroke-linecap="round" transform="translate(41.67738050816138 49.789531062925334) rotate(339.88737424466717 1.0051184191088396 0.9768611373413236)"><path d="M0 0 L2.01 0 L2.01 1.95 L0 1.95" stroke="none" stroke-width="0" fill="none"></path><path d="M0 0 C0.73 0, 1.47 0, 2.01 0 M0 0 C0.52 0, 1.05 0, 2.01 0 M2.01 0 C2.01 0.74, 2.01 1.49, 2.01 1.95 M2.01 0 C2.01 0.52, 2.01 1.04, 2.01 1.95 M2.01 1.95 C1.37 1.95, 0.73 1.95, 0 1.95 M2.01 1.95 C1.55 1.95, 1.09 1.95, 0 1.95 M0 1.95 C0 1.3, 0 0.66, 0 0 M0 1.95 C0 1.44, 0 0.93, 0 0" stroke="none" stroke-width="1" fill="none"></path></g><g stroke-linecap="round" transform="translate(43.040813385897536 53.56171419757118) rotate(339.88737424466717 1.0051184191088396 0.9768611373413236)"><path d="M0 0 L2.01 0 L2.01 1.95 L0 1.95" stroke="none" stroke-width="0" fill="none"></path><path d="M0 0 C0.61 0, 1.22 0, 2.01 0 M0 0 C0.73 0, 1.46 0, 2.01 0 M2.01 0 C2.01 0.39, 2.01 0.79, 2.01 1.95 M2.01 0 C2.01 0.63, 2.01 1.25, 2.01 1.95 M2.01 1.95 C1.26 1.95, 0.51 1.95, 0 1.95 M2.01 1.95 C1.21 1.95, 0.41 1.95, 0 1.95 M0 1.95 C0 1.3, 0 0.65, 0 0 M0 1.95 C0 1.23, 0 0.51, 0 0" stroke="none" stroke-width="1" fill="none"></path></g><g stroke-linecap="round" transform="translate(44.22246399736582 57.01576796402799) rotate(339.88737424466717 1.0051184191088396 0.9768611373413236)"><path d="M0 0 L2.01 0 L2.01 1.95 L0 1.95" stroke="none" stroke-width="0" fill="none"></path><path d="M0 0 C0.64 0, 1.29 0, 2.01 0 M0 0 C0.65 0, 1.31 0, 2.01 0 M2.01 0 C2.01 0.57, 2.01 1.14, 2.01 1.95 M2.01 0 C2.01 0.59, 2.01 1.17, 2.01 1.95 M2.01 1.95 C1.42 1.95, 0.84 1.95, 0 1.95 M2.01 1.95 C1.36 1.95, 0.7 1.95, 0 1.95 M0 1.95 C0 1.47, 0 0.98, 0 0 M0 1.95 C0 1.18, 0 0.41, 0 0" stroke="none" stroke-width="1" fill="none"></path></g><g stroke-linecap="round" transform="translate(45.495019611594444 60.31075011157725) rotate(339.88737424466717 1.0051184191088396 0.9768611373413236)"><path d="M0 0 L2.01 0 L2.01 1.95 L0 1.95" stroke="none" stroke-width="0" fill="none"></path><path d="M0 0 C0.6 0, 1.2 0, 2.01 0 M0 0 C0.58 0, 1.17 0, 2.01 0 M2.01 0 C2.01 0.53, 2.01 1.07, 2.01 1.95 M2.01 0 C2.01 0.45, 2.01 0.91, 2.01 1.95 M2.01 1.95 C1.24 1.95, 0.47 1.95, 0 1.95 M2.01 1.95 C1.24 1.95, 0.47 1.95, 0 1.95 M0 1.95 C0 1.54, 0 1.12, 0 0 M0 1.95 C0 1.37, 0 0.79, 0 0" stroke="none" stroke-width="1" fill="none"></path></g><g stroke-linecap="round" transform="translate(35.22376331498458 62.674047867106765) rotate(339.88737424466717 1.0051184191088396 0.9768611373413236)"><path d="M0 0 L2.01 0 L2.01 1.95 L0 1.95" stroke="none" stroke-width="0" fill="none"></path><path d="M0 0 C0.7 0, 1.41 0, 2.01 0 M0 0 C0.7 0, 1.4 0, 2.01 0 M2.01 0 C2.01 0.47, 2.01 0.94, 2.01 1.95 M2.01 0 C2.01 0.49, 2.01 0.97, 2.01 1.95 M2.01 1.95 C1.46 1.95, 0.91 1.95, 0 1.95 M2.01 1.95 C1.23 1.95, 0.45 1.95, 0 1.95 M0 1.95 C0 1.27, 0 0.59, 0 0 M0 1.95 C0 1.49, 0 1.02, 0 0" stroke="none" stroke-width="1" fill="none"></path></g></svg>