<svg version="1.1" xmlns="http://www.w3.org/2000/svg" viewBox="0 0 93.25358860594588 86.348130864746" width="93.25358860594588" height="86.348130864746">
  <!-- svg-source:excalidraw -->
  
  <defs>
    <style class="style-fonts">
      
    </style>
    
  </defs>
  <rect x="0" y="0" width="93.25358860594588" height="86.348130864746" fill="#ffffff"></rect><g stroke-linecap="round" transform="translate(10.000000000000455 11.599088248615772) rotate(0 32.26785432198699 31.6551731246046)"><path d="M64.54 31.66 C64.54 33.31, 64.4 34.98, 64.14 36.61 C63.88 38.24, 63.48 39.87, 62.96 41.44 C62.44 43.01, 61.78 44.56, 61.02 46.03 C60.25 47.5, 59.36 48.93, 58.37 50.26 C57.38 51.6, 56.27 52.87, 55.08 54.04 C53.89 55.21, 52.6 56.29, 51.23 57.26 C49.87 58.23, 48.42 59.11, 46.92 59.86 C45.42 60.61, 43.84 61.25, 42.24 61.76 C40.64 62.27, 38.98 62.66, 37.32 62.92 C35.65 63.18, 33.95 63.31, 32.27 63.31 C30.59 63.31, 28.88 63.18, 27.22 62.92 C25.56 62.66, 23.9 62.27, 22.3 61.76 C20.7 61.25, 19.12 60.61, 17.62 59.86 C16.12 59.11, 14.66 58.23, 13.3 57.26 C11.94 56.29, 10.64 55.21, 9.45 54.04 C8.26 52.87, 7.15 51.6, 6.16 50.26 C5.17 48.93, 4.28 47.5, 3.52 46.03 C2.75 44.56, 2.1 43.01, 1.58 41.44 C1.06 39.87, 0.66 38.24, 0.4 36.61 C0.13 34.98, 0 33.31, 0 31.66 C0 30, 0.13 28.33, 0.4 26.7 C0.66 25.07, 1.06 23.44, 1.58 21.87 C2.1 20.3, 2.75 18.75, 3.52 17.28 C4.28 15.81, 5.17 14.38, 6.16 13.05 C7.15 11.71, 8.26 10.44, 9.45 9.27 C10.64 8.1, 11.94 7.02, 13.3 6.05 C14.66 5.08, 16.12 4.2, 17.62 3.45 C19.12 2.7, 20.7 2.06, 22.3 1.55 C23.9 1.04, 25.56 0.65, 27.22 0.39 C28.88 0.13, 30.59 0, 32.27 0 C33.95 0, 35.65 0.13, 37.32 0.39 C38.98 0.65, 40.64 1.04, 42.24 1.55 C43.84 2.06, 45.42 2.7, 46.92 3.45 C48.42 4.2, 49.87 5.08, 51.23 6.05 C52.6 7.02, 53.89 8.1, 55.08 9.27 C56.27 10.44, 57.38 11.71, 58.37 13.05 C59.36 14.38, 60.25 15.81, 61.02 17.28 C61.78 18.75, 62.44 20.3, 62.96 21.87 C63.48 23.44, 63.88 25.07, 64.14 26.7 C64.4 28.33, 64.47 30.83, 64.54 31.66 C64.6 32.48, 64.6 30.83, 64.54 31.66" stroke="none" stroke-width="0" fill="#1e1e1e"></path><path d="M64.54 31.66 C64.54 33.31, 64.4 34.98, 64.14 36.61 C63.88 38.24, 63.48 39.87, 62.96 41.44 C62.44 43.01, 61.78 44.56, 61.02 46.03 C60.25 47.5, 59.36 48.93, 58.37 50.26 C57.38 51.6, 56.27 52.87, 55.08 54.04 C53.89 55.21, 52.6 56.29, 51.23 57.26 C49.87 58.23, 48.42 59.11, 46.92 59.86 C45.42 60.61, 43.84 61.25, 42.24 61.76 C40.64 62.27, 38.98 62.66, 37.32 62.92 C35.65 63.18, 33.95 63.31, 32.27 63.31 C30.59 63.31, 28.88 63.18, 27.22 62.92 C25.56 62.66, 23.9 62.27, 22.3 61.76 C20.7 61.25, 19.12 60.61, 17.62 59.86 C16.12 59.11, 14.66 58.23, 13.3 57.26 C11.94 56.29, 10.64 55.21, 9.45 54.04 C8.26 52.87, 7.15 51.6, 6.16 50.26 C5.17 48.93, 4.28 47.5, 3.52 46.03 C2.75 44.56, 2.1 43.01, 1.58 41.44 C1.06 39.87, 0.66 38.24, 0.4 36.61 C0.13 34.98, 0 33.31, 0 31.66 C0 30, 0.13 28.33, 0.4 26.7 C0.66 25.07, 1.06 23.44, 1.58 21.87 C2.1 20.3, 2.75 18.75, 3.52 17.28 C4.28 15.81, 5.17 14.38, 6.16 13.05 C7.15 11.71, 8.26 10.44, 9.45 9.27 C10.64 8.1, 11.94 7.02, 13.3 6.05 C14.66 5.08, 16.12 4.2, 17.62 3.45 C19.12 2.7, 20.7 2.06, 22.3 1.55 C23.9 1.04, 25.56 0.65, 27.22 0.39 C28.88 0.13, 30.59 0, 32.27 0 C33.95 0, 35.65 0.13, 37.32 0.39 C38.98 0.65, 40.64 1.04, 42.24 1.55 C43.84 2.06, 45.42 2.7, 46.92 3.45 C48.42 4.2, 49.87 5.08, 51.23 6.05 C52.6 7.02, 53.89 8.1, 55.08 9.27 C56.27 10.44, 57.38 11.71, 58.37 13.05 C59.36 14.38, 60.25 15.81, 61.02 17.28 C61.78 18.75, 62.44 20.3, 62.96 21.87 C63.48 23.44, 63.88 25.07, 64.14 26.7 C64.4 28.33, 64.47 30.83, 64.54 31.66 C64.6 32.48, 64.6 30.83, 64.54 31.66" stroke="#1e1e1e" stroke-width="4" fill="none"></path></g><g stroke-linecap="round" transform="translate(37.97039449530803 39.09387936013934) rotate(0 4.29745924182248 4.160382163806133)"><path d="M8.59 4.16 C8.59 4.4, 8.57 4.65, 8.53 4.88 C8.49 5.12, 8.42 5.36, 8.34 5.58 C8.25 5.81, 8.14 6.03, 8.02 6.24 C7.89 6.45, 7.75 6.65, 7.59 6.83 C7.43 7.02, 7.25 7.19, 7.06 7.35 C6.87 7.5, 6.66 7.64, 6.45 7.76 C6.23 7.88, 6 7.99, 5.77 8.07 C5.53 8.15, 5.29 8.22, 5.04 8.26 C4.8 8.3, 4.55 8.32, 4.3 8.32 C4.05 8.32, 3.8 8.3, 3.55 8.26 C3.31 8.22, 3.06 8.15, 2.83 8.07 C2.59 7.99, 2.36 7.88, 2.15 7.76 C1.93 7.64, 1.73 7.5, 1.54 7.35 C1.34 7.19, 1.17 7.02, 1.01 6.83 C0.85 6.65, 0.7 6.45, 0.58 6.24 C0.45 6.03, 0.34 5.81, 0.26 5.58 C0.17 5.36, 0.11 5.12, 0.07 4.88 C0.02 4.65, 0 4.4, 0 4.16 C0 3.92, 0.02 3.68, 0.07 3.44 C0.11 3.2, 0.17 2.96, 0.26 2.74 C0.34 2.51, 0.45 2.29, 0.58 2.08 C0.7 1.87, 0.85 1.67, 1.01 1.49 C1.17 1.3, 1.34 1.13, 1.54 0.97 C1.73 0.82, 1.93 0.68, 2.15 0.56 C2.36 0.44, 2.59 0.33, 2.83 0.25 C3.06 0.17, 3.31 0.11, 3.55 0.06 C3.8 0.02, 4.05 0, 4.3 0 C4.55 0, 4.8 0.02, 5.04 0.06 C5.29 0.11, 5.53 0.17, 5.77 0.25 C6 0.33, 6.23 0.44, 6.45 0.56 C6.66 0.68, 6.87 0.82, 7.06 0.97 C7.25 1.13, 7.43 1.3, 7.59 1.49 C7.75 1.67, 7.89 1.87, 8.02 2.08 C8.14 2.29, 8.25 2.51, 8.34 2.74 C8.42 2.96, 8.49 3.2, 8.53 3.44 C8.57 3.68, 8.58 4.04, 8.59 4.16 C8.61 4.28, 8.61 4.04, 8.59 4.16" stroke="none" stroke-width="0" fill="#ffffff"></path><path d="M8.59 4.16 C8.59 4.4, 8.57 4.65, 8.53 4.88 C8.49 5.12, 8.42 5.36, 8.34 5.58 C8.25 5.81, 8.14 6.03, 8.02 6.24 C7.89 6.45, 7.75 6.65, 7.59 6.83 C7.43 7.02, 7.25 7.19, 7.06 7.35 C6.87 7.5, 6.66 7.64, 6.45 7.76 C6.23 7.88, 6 7.99, 5.77 8.07 C5.53 8.15, 5.29 8.22, 5.04 8.26 C4.8 8.3, 4.55 8.32, 4.3 8.32 C4.05 8.32, 3.8 8.3, 3.55 8.26 C3.31 8.22, 3.06 8.15, 2.83 8.07 C2.59 7.99, 2.36 7.88, 2.15 7.76 C1.93 7.64, 1.73 7.5, 1.54 7.35 C1.34 7.19, 1.17 7.02, 1.01 6.83 C0.85 6.65, 0.7 6.45, 0.58 6.24 C0.45 6.03, 0.34 5.81, 0.26 5.58 C0.17 5.36, 0.11 5.12, 0.07 4.88 C0.02 4.65, 0 4.4, 0 4.16 C0 3.92, 0.02 3.68, 0.07 3.44 C0.11 3.2, 0.17 2.96, 0.26 2.74 C0.34 2.51, 0.45 2.29, 0.58 2.08 C0.7 1.87, 0.85 1.67, 1.01 1.49 C1.17 1.3, 1.34 1.13, 1.54 0.97 C1.73 0.82, 1.93 0.68, 2.15 0.56 C2.36 0.44, 2.59 0.33, 2.83 0.25 C3.06 0.17, 3.31 0.11, 3.55 0.06 C3.8 0.02, 4.05 0, 4.3 0 C4.55 0, 4.8 0.02, 5.04 0.06 C5.29 0.11, 5.53 0.17, 5.77 0.25 C6 0.33, 6.23 0.44, 6.45 0.56 C6.66 0.68, 6.87 0.82, 7.06 0.97 C7.25 1.13, 7.43 1.3, 7.59 1.49 C7.75 1.67, 7.89 1.87, 8.02 2.08 C8.14 2.29, 8.25 2.51, 8.34 2.74 C8.42 2.96, 8.49 3.2, 8.53 3.44 C8.57 3.68, 8.58 4.04, 8.59 4.16 C8.61 4.28, 8.61 4.04, 8.59 4.16" stroke="#ffffff" stroke-width="4" fill="none"></path></g><g stroke-linecap="round" transform="translate(37.970394001571094 15.177535406206573) rotate(0 4.29745924182248 4.160382163806133)"><path d="M8.59 4.16 C8.59 4.4, 8.57 4.65, 8.53 4.88 C8.49 5.12, 8.42 5.36, 8.34 5.58 C8.25 5.81, 8.14 6.03, 8.02 6.24 C7.89 6.45, 7.75 6.65, 7.59 6.83 C7.43 7.02, 7.25 7.19, 7.06 7.35 C6.87 7.5, 6.66 7.64, 6.45 7.76 C6.23 7.88, 6 7.99, 5.77 8.07 C5.53 8.15, 5.29 8.22, 5.04 8.26 C4.8 8.3, 4.55 8.32, 4.3 8.32 C4.05 8.32, 3.8 8.3, 3.55 8.26 C3.31 8.22, 3.06 8.15, 2.83 8.07 C2.59 7.99, 2.36 7.88, 2.15 7.76 C1.93 7.64, 1.73 7.5, 1.54 7.35 C1.34 7.19, 1.17 7.02, 1.01 6.83 C0.85 6.65, 0.7 6.45, 0.58 6.24 C0.45 6.03, 0.34 5.81, 0.26 5.58 C0.17 5.36, 0.11 5.12, 0.07 4.88 C0.02 4.65, 0 4.4, 0 4.16 C0 3.92, 0.02 3.68, 0.07 3.44 C0.11 3.2, 0.17 2.96, 0.26 2.74 C0.34 2.51, 0.45 2.29, 0.58 2.08 C0.7 1.87, 0.85 1.67, 1.01 1.49 C1.17 1.3, 1.34 1.13, 1.54 0.97 C1.73 0.82, 1.93 0.68, 2.15 0.56 C2.36 0.44, 2.59 0.33, 2.83 0.25 C3.06 0.17, 3.31 0.11, 3.55 0.06 C3.8 0.02, 4.05 0, 4.3 0 C4.55 0, 4.8 0.02, 5.04 0.06 C5.29 0.11, 5.53 0.17, 5.77 0.25 C6 0.33, 6.23 0.44, 6.45 0.56 C6.66 0.68, 6.87 0.82, 7.06 0.97 C7.25 1.13, 7.43 1.3, 7.59 1.49 C7.75 1.67, 7.89 1.87, 8.02 2.08 C8.14 2.29, 8.25 2.51, 8.34 2.74 C8.42 2.96, 8.49 3.2, 8.53 3.44 C8.57 3.68, 8.58 4.04, 8.59 4.16 C8.61 4.28, 8.61 4.04, 8.59 4.16" stroke="none" stroke-width="0" fill="#ffffff"></path><path d="M8.59 4.16 C8.59 4.4, 8.57 4.65, 8.53 4.88 C8.49 5.12, 8.42 5.36, 8.34 5.58 C8.25 5.81, 8.14 6.03, 8.02 6.24 C7.89 6.45, 7.75 6.65, 7.59 6.83 C7.43 7.02, 7.25 7.19, 7.06 7.35 C6.87 7.5, 6.66 7.64, 6.45 7.76 C6.23 7.88, 6 7.99, 5.77 8.07 C5.53 8.15, 5.29 8.22, 5.04 8.26 C4.8 8.3, 4.55 8.32, 4.3 8.32 C4.05 8.32, 3.8 8.3, 3.55 8.26 C3.31 8.22, 3.06 8.15, 2.83 8.07 C2.59 7.99, 2.36 7.88, 2.15 7.76 C1.93 7.64, 1.73 7.5, 1.54 7.35 C1.34 7.19, 1.17 7.02, 1.01 6.83 C0.85 6.65, 0.7 6.45, 0.58 6.24 C0.45 6.03, 0.34 5.81, 0.26 5.58 C0.17 5.36, 0.11 5.12, 0.07 4.88 C0.02 4.65, 0 4.4, 0 4.16 C0 3.92, 0.02 3.68, 0.07 3.44 C0.11 3.2, 0.17 2.96, 0.26 2.74 C0.34 2.51, 0.45 2.29, 0.58 2.08 C0.7 1.87, 0.85 1.67, 1.01 1.49 C1.17 1.3, 1.34 1.13, 1.54 0.97 C1.73 0.82, 1.93 0.68, 2.15 0.56 C2.36 0.44, 2.59 0.33, 2.83 0.25 C3.06 0.17, 3.31 0.11, 3.55 0.06 C3.8 0.02, 4.05 0, 4.3 0 C4.55 0, 4.8 0.02, 5.04 0.06 C5.29 0.11, 5.53 0.17, 5.77 0.25 C6 0.33, 6.23 0.44, 6.45 0.56 C6.66 0.68, 6.87 0.82, 7.06 0.97 C7.25 1.13, 7.43 1.3, 7.59 1.49 C7.75 1.67, 7.89 1.87, 8.02 2.08 C8.14 2.29, 8.25 2.51, 8.34 2.74 C8.42 2.96, 8.49 3.2, 8.53 3.44 C8.57 3.68, 8.58 4.04, 8.59 4.16 C8.61 4.28, 8.61 4.04, 8.59 4.16" stroke="#ffffff" stroke-width="4" fill="none"></path></g><g stroke-linecap="round" transform="translate(61.80696743599492 39.093878575498024) rotate(0 4.29745924182248 4.160382163806133)"><path d="M8.59 4.16 C8.59 4.4, 8.57 4.65, 8.53 4.88 C8.49 5.12, 8.42 5.36, 8.34 5.58 C8.25 5.81, 8.14 6.03, 8.02 6.24 C7.89 6.45, 7.75 6.65, 7.59 6.83 C7.43 7.02, 7.25 7.19, 7.06 7.35 C6.87 7.5, 6.66 7.64, 6.45 7.76 C6.23 7.88, 6 7.99, 5.77 8.07 C5.53 8.15, 5.29 8.22, 5.04 8.26 C4.8 8.3, 4.55 8.32, 4.3 8.32 C4.05 8.32, 3.8 8.3, 3.55 8.26 C3.31 8.22, 3.06 8.15, 2.83 8.07 C2.59 7.99, 2.36 7.88, 2.15 7.76 C1.93 7.64, 1.73 7.5, 1.54 7.35 C1.34 7.19, 1.17 7.02, 1.01 6.83 C0.85 6.65, 0.7 6.45, 0.58 6.24 C0.45 6.03, 0.34 5.81, 0.26 5.58 C0.17 5.36, 0.11 5.12, 0.07 4.88 C0.02 4.65, 0 4.4, 0 4.16 C0 3.92, 0.02 3.68, 0.07 3.44 C0.11 3.2, 0.17 2.96, 0.26 2.74 C0.34 2.51, 0.45 2.29, 0.58 2.08 C0.7 1.87, 0.85 1.67, 1.01 1.49 C1.17 1.3, 1.34 1.13, 1.54 0.97 C1.73 0.82, 1.93 0.68, 2.15 0.56 C2.36 0.44, 2.59 0.33, 2.83 0.25 C3.06 0.17, 3.31 0.11, 3.55 0.06 C3.8 0.02, 4.05 0, 4.3 0 C4.55 0, 4.8 0.02, 5.04 0.06 C5.29 0.11, 5.53 0.17, 5.77 0.25 C6 0.33, 6.23 0.44, 6.45 0.56 C6.66 0.68, 6.87 0.82, 7.06 0.97 C7.25 1.13, 7.43 1.3, 7.59 1.49 C7.75 1.67, 7.89 1.87, 8.02 2.08 C8.14 2.29, 8.25 2.51, 8.34 2.74 C8.42 2.96, 8.49 3.2, 8.53 3.44 C8.57 3.68, 8.58 4.04, 8.59 4.16 C8.61 4.28, 8.61 4.04, 8.59 4.16" stroke="none" stroke-width="0" fill="#ffffff"></path><path d="M8.59 4.16 C8.59 4.4, 8.57 4.65, 8.53 4.88 C8.49 5.12, 8.42 5.36, 8.34 5.58 C8.25 5.81, 8.14 6.03, 8.02 6.24 C7.89 6.45, 7.75 6.65, 7.59 6.83 C7.43 7.02, 7.25 7.19, 7.06 7.35 C6.87 7.5, 6.66 7.64, 6.45 7.76 C6.23 7.88, 6 7.99, 5.77 8.07 C5.53 8.15, 5.29 8.22, 5.04 8.26 C4.8 8.3, 4.55 8.32, 4.3 8.32 C4.05 8.32, 3.8 8.3, 3.55 8.26 C3.31 8.22, 3.06 8.15, 2.83 8.07 C2.59 7.99, 2.36 7.88, 2.15 7.76 C1.93 7.64, 1.73 7.5, 1.54 7.35 C1.34 7.19, 1.17 7.02, 1.01 6.83 C0.85 6.65, 0.7 6.45, 0.58 6.24 C0.45 6.03, 0.34 5.81, 0.26 5.58 C0.17 5.36, 0.11 5.12, 0.07 4.88 C0.02 4.65, 0 4.4, 0 4.16 C0 3.92, 0.02 3.68, 0.07 3.44 C0.11 3.2, 0.17 2.96, 0.26 2.74 C0.34 2.51, 0.45 2.29, 0.58 2.08 C0.7 1.87, 0.85 1.67, 1.01 1.49 C1.17 1.3, 1.34 1.13, 1.54 0.97 C1.73 0.82, 1.93 0.68, 2.15 0.56 C2.36 0.44, 2.59 0.33, 2.83 0.25 C3.06 0.17, 3.31 0.11, 3.55 0.06 C3.8 0.02, 4.05 0, 4.3 0 C4.55 0, 4.8 0.02, 5.04 0.06 C5.29 0.11, 5.53 0.17, 5.77 0.25 C6 0.33, 6.23 0.44, 6.45 0.56 C6.66 0.68, 6.87 0.82, 7.06 0.97 C7.25 1.13, 7.43 1.3, 7.59 1.49 C7.75 1.67, 7.89 1.87, 8.02 2.08 C8.14 2.29, 8.25 2.51, 8.34 2.74 C8.42 2.96, 8.49 3.2, 8.53 3.44 C8.57 3.68, 8.58 4.04, 8.59 4.16 C8.61 4.28, 8.61 4.04, 8.59 4.16" stroke="#ffffff" stroke-width="4" fill="none"></path></g><g stroke-linecap="round" transform="translate(37.970393560113735 63.01022230837617) rotate(0 4.29745924182248 4.160382163806133)"><path d="M8.59 4.16 C8.59 4.4, 8.57 4.65, 8.53 4.88 C8.49 5.12, 8.42 5.36, 8.34 5.58 C8.25 5.81, 8.14 6.03, 8.02 6.24 C7.89 6.45, 7.75 6.65, 7.59 6.83 C7.43 7.02, 7.25 7.19, 7.06 7.35 C6.87 7.5, 6.66 7.64, 6.45 7.76 C6.23 7.88, 6 7.99, 5.77 8.07 C5.53 8.15, 5.29 8.22, 5.04 8.26 C4.8 8.3, 4.55 8.32, 4.3 8.32 C4.05 8.32, 3.8 8.3, 3.55 8.26 C3.31 8.22, 3.06 8.15, 2.83 8.07 C2.59 7.99, 2.36 7.88, 2.15 7.76 C1.93 7.64, 1.73 7.5, 1.54 7.35 C1.34 7.19, 1.17 7.02, 1.01 6.83 C0.85 6.65, 0.7 6.45, 0.58 6.24 C0.45 6.03, 0.34 5.81, 0.26 5.58 C0.17 5.36, 0.11 5.12, 0.07 4.88 C0.02 4.65, 0 4.4, 0 4.16 C0 3.92, 0.02 3.68, 0.07 3.44 C0.11 3.2, 0.17 2.96, 0.26 2.74 C0.34 2.51, 0.45 2.29, 0.58 2.08 C0.7 1.87, 0.85 1.67, 1.01 1.49 C1.17 1.3, 1.34 1.13, 1.54 0.97 C1.73 0.82, 1.93 0.68, 2.15 0.56 C2.36 0.44, 2.59 0.33, 2.83 0.25 C3.06 0.17, 3.31 0.11, 3.55 0.06 C3.8 0.02, 4.05 0, 4.3 0 C4.55 0, 4.8 0.02, 5.04 0.06 C5.29 0.11, 5.53 0.17, 5.77 0.25 C6 0.33, 6.23 0.44, 6.45 0.56 C6.66 0.68, 6.87 0.82, 7.06 0.97 C7.25 1.13, 7.43 1.3, 7.59 1.49 C7.75 1.67, 7.89 1.87, 8.02 2.08 C8.14 2.29, 8.25 2.51, 8.34 2.74 C8.42 2.96, 8.49 3.2, 8.53 3.44 C8.57 3.68, 8.58 4.04, 8.59 4.16 C8.61 4.28, 8.61 4.04, 8.59 4.16" stroke="none" stroke-width="0" fill="#ffffff"></path><path d="M8.59 4.16 C8.59 4.4, 8.57 4.65, 8.53 4.88 C8.49 5.12, 8.42 5.36, 8.34 5.58 C8.25 5.81, 8.14 6.03, 8.02 6.24 C7.89 6.45, 7.75 6.65, 7.59 6.83 C7.43 7.02, 7.25 7.19, 7.06 7.35 C6.87 7.5, 6.66 7.64, 6.45 7.76 C6.23 7.88, 6 7.99, 5.77 8.07 C5.53 8.15, 5.29 8.22, 5.04 8.26 C4.8 8.3, 4.55 8.32, 4.3 8.32 C4.05 8.32, 3.8 8.3, 3.55 8.26 C3.31 8.22, 3.06 8.15, 2.83 8.07 C2.59 7.99, 2.36 7.88, 2.15 7.76 C1.93 7.64, 1.73 7.5, 1.54 7.35 C1.34 7.19, 1.17 7.02, 1.01 6.83 C0.85 6.65, 0.7 6.45, 0.58 6.24 C0.45 6.03, 0.34 5.81, 0.26 5.58 C0.17 5.36, 0.11 5.12, 0.07 4.88 C0.02 4.65, 0 4.4, 0 4.16 C0 3.92, 0.02 3.68, 0.07 3.44 C0.11 3.2, 0.17 2.96, 0.26 2.74 C0.34 2.51, 0.45 2.29, 0.58 2.08 C0.7 1.87, 0.85 1.67, 1.01 1.49 C1.17 1.3, 1.34 1.13, 1.54 0.97 C1.73 0.82, 1.93 0.68, 2.15 0.56 C2.36 0.44, 2.59 0.33, 2.83 0.25 C3.06 0.17, 3.31 0.11, 3.55 0.06 C3.8 0.02, 4.05 0, 4.3 0 C4.55 0, 4.8 0.02, 5.04 0.06 C5.29 0.11, 5.53 0.17, 5.77 0.25 C6 0.33, 6.23 0.44, 6.45 0.56 C6.66 0.68, 6.87 0.82, 7.06 0.97 C7.25 1.13, 7.43 1.3, 7.59 1.49 C7.75 1.67, 7.89 1.87, 8.02 2.08 C8.14 2.29, 8.25 2.51, 8.34 2.74 C8.42 2.96, 8.49 3.2, 8.53 3.44 C8.57 3.68, 8.58 4.04, 8.59 4.16 C8.61 4.28, 8.61 4.04, 8.59 4.16" stroke="#ffffff" stroke-width="4" fill="none"></path></g><g stroke-linecap="round" transform="translate(16.211762651827485 10.239494763061373) rotate(0 33.48737309888429 32.60968098430925)"><path d="M66.97 32.61 C66.97 34.31, 66.84 36.03, 66.56 37.71 C66.29 39.39, 65.88 41.07, 65.34 42.69 C64.8 44.3, 64.12 45.9, 63.32 47.41 C62.53 48.93, 61.61 50.4, 60.58 51.78 C59.55 53.15, 58.4 54.47, 57.17 55.67 C55.93 56.87, 54.58 57.99, 53.17 58.99 C51.76 59.99, 50.25 60.89, 48.69 61.67 C47.13 62.44, 45.5 63.1, 43.84 63.62 C42.17 64.15, 40.45 64.55, 38.73 64.82 C37 65.08, 35.23 65.22, 33.49 65.22 C31.74 65.22, 29.97 65.08, 28.25 64.82 C26.52 64.55, 24.8 64.15, 23.14 63.62 C21.48 63.1, 19.84 62.44, 18.28 61.67 C16.73 60.89, 15.22 59.99, 13.8 58.99 C12.39 57.99, 11.04 56.87, 9.81 55.67 C8.57 54.47, 7.42 53.15, 6.4 51.78 C5.37 50.4, 4.44 48.93, 3.65 47.41 C2.86 45.9, 2.18 44.3, 1.64 42.69 C1.1 41.07, 0.69 39.39, 0.41 37.71 C0.14 36.03, 0 34.31, 0 32.61 C0 30.91, 0.14 29.19, 0.41 27.51 C0.69 25.83, 1.1 24.15, 1.64 22.53 C2.18 20.92, 2.86 19.32, 3.65 17.81 C4.44 16.29, 5.37 14.82, 6.4 13.44 C7.42 12.07, 8.57 10.75, 9.81 9.55 C11.04 8.35, 12.39 7.23, 13.8 6.23 C15.22 5.23, 16.73 4.33, 18.28 3.55 C19.84 2.78, 21.48 2.12, 23.14 1.6 C24.8 1.07, 26.52 0.67, 28.25 0.4 C29.97 0.14, 31.74 0, 33.49 0 C35.23 0, 37 0.14, 38.73 0.4 C40.45 0.67, 42.17 1.07, 43.84 1.6 C45.5 2.12, 47.13 2.78, 48.69 3.55 C50.25 4.33, 51.76 5.23, 53.17 6.23 C54.58 7.23, 55.93 8.35, 57.17 9.55 C58.4 10.75, 59.55 12.07, 60.58 13.44 C61.61 14.82, 62.53 16.29, 63.32 17.81 C64.12 19.32, 64.8 20.92, 65.34 22.53 C65.88 24.15, 66.29 25.83, 66.56 27.51 C66.84 29.19, 66.91 31.76, 66.97 32.61 C67.04 33.46, 67.04 31.76, 66.97 32.61" stroke="#1e1e1e" stroke-width="2" fill="none"></path></g><g stroke-linecap="round" transform="translate(14.133820667113014 39.093879395351536) rotate(0 4.29745924182248 4.160382163806148)"><path d="M8.59 4.16 C8.59 4.4, 8.57 4.65, 8.53 4.88 C8.49 5.12, 8.42 5.36, 8.34 5.58 C8.25 5.81, 8.14 6.03, 8.02 6.24 C7.89 6.45, 7.75 6.65, 7.59 6.83 C7.43 7.02, 7.25 7.19, 7.06 7.35 C6.87 7.5, 6.66 7.64, 6.45 7.76 C6.23 7.88, 6 7.99, 5.77 8.07 C5.53 8.15, 5.29 8.22, 5.04 8.26 C4.8 8.3, 4.55 8.32, 4.3 8.32 C4.05 8.32, 3.8 8.3, 3.55 8.26 C3.31 8.22, 3.06 8.15, 2.83 8.07 C2.59 7.99, 2.36 7.88, 2.15 7.76 C1.93 7.64, 1.73 7.5, 1.54 7.35 C1.34 7.19, 1.17 7.02, 1.01 6.83 C0.85 6.65, 0.7 6.45, 0.58 6.24 C0.45 6.03, 0.34 5.81, 0.26 5.58 C0.17 5.36, 0.11 5.12, 0.07 4.88 C0.02 4.65, 0 4.4, 0 4.16 C0 3.92, 0.02 3.68, 0.07 3.44 C0.11 3.2, 0.17 2.96, 0.26 2.74 C0.34 2.51, 0.45 2.29, 0.58 2.08 C0.7 1.87, 0.85 1.67, 1.01 1.49 C1.17 1.3, 1.34 1.13, 1.54 0.97 C1.73 0.82, 1.93 0.68, 2.15 0.56 C2.36 0.44, 2.59 0.33, 2.83 0.25 C3.06 0.17, 3.31 0.11, 3.55 0.06 C3.8 0.02, 4.05 0, 4.3 0 C4.55 0, 4.8 0.02, 5.04 0.06 C5.29 0.11, 5.53 0.17, 5.77 0.25 C6 0.33, 6.23 0.44, 6.45 0.56 C6.66 0.68, 6.87 0.82, 7.06 0.97 C7.25 1.13, 7.43 1.3, 7.59 1.49 C7.75 1.67, 7.89 1.87, 8.02 2.08 C8.14 2.29, 8.25 2.51, 8.34 2.74 C8.42 2.96, 8.49 3.2, 8.53 3.44 C8.57 3.68, 8.58 4.04, 8.59 4.16 C8.61 4.28, 8.61 4.04, 8.59 4.16" stroke="none" stroke-width="0" fill="#ffffff"></path><path d="M8.59 4.16 C8.59 4.4, 8.57 4.65, 8.53 4.88 C8.49 5.12, 8.42 5.36, 8.34 5.58 C8.25 5.81, 8.14 6.03, 8.02 6.24 C7.89 6.45, 7.75 6.65, 7.59 6.83 C7.43 7.02, 7.25 7.19, 7.06 7.35 C6.87 7.5, 6.66 7.64, 6.45 7.76 C6.23 7.88, 6 7.99, 5.77 8.07 C5.53 8.15, 5.29 8.22, 5.04 8.26 C4.8 8.3, 4.55 8.32, 4.3 8.32 C4.05 8.32, 3.8 8.3, 3.55 8.26 C3.31 8.22, 3.06 8.15, 2.83 8.07 C2.59 7.99, 2.36 7.88, 2.15 7.76 C1.93 7.64, 1.73 7.5, 1.54 7.35 C1.34 7.19, 1.17 7.02, 1.01 6.83 C0.85 6.65, 0.7 6.45, 0.58 6.24 C0.45 6.03, 0.34 5.81, 0.26 5.58 C0.17 5.36, 0.11 5.12, 0.07 4.88 C0.02 4.65, 0 4.4, 0 4.16 C0 3.92, 0.02 3.68, 0.07 3.44 C0.11 3.2, 0.17 2.96, 0.26 2.74 C0.34 2.51, 0.45 2.29, 0.58 2.08 C0.7 1.87, 0.85 1.67, 1.01 1.49 C1.17 1.3, 1.34 1.13, 1.54 0.97 C1.73 0.82, 1.93 0.68, 2.15 0.56 C2.36 0.44, 2.59 0.33, 2.83 0.25 C3.06 0.17, 3.31 0.11, 3.55 0.06 C3.8 0.02, 4.05 0, 4.3 0 C4.55 0, 4.8 0.02, 5.04 0.06 C5.29 0.11, 5.53 0.17, 5.77 0.25 C6 0.33, 6.23 0.44, 6.45 0.56 C6.66 0.68, 6.87 0.82, 7.06 0.97 C7.25 1.13, 7.43 1.3, 7.59 1.49 C7.75 1.67, 7.89 1.87, 8.02 2.08 C8.14 2.29, 8.25 2.51, 8.34 2.74 C8.42 2.96, 8.49 3.2, 8.53 3.44 C8.57 3.68, 8.58 4.04, 8.59 4.16 C8.61 4.28, 8.61 4.04, 8.59 4.16" stroke="#ffffff" stroke-width="4" fill="none"></path></g><g stroke-linecap="round" transform="translate(20.127635871943312 22.063592472850758) rotate(0 4.29745924182248 4.160382163806133)"><path d="M8.59 4.16 C8.59 4.4, 8.57 4.65, 8.53 4.88 C8.49 5.12, 8.42 5.36, 8.34 5.58 C8.25 5.81, 8.14 6.03, 8.02 6.24 C7.89 6.45, 7.75 6.65, 7.59 6.83 C7.43 7.02, 7.25 7.19, 7.06 7.35 C6.87 7.5, 6.66 7.64, 6.45 7.76 C6.23 7.88, 6 7.99, 5.77 8.07 C5.53 8.15, 5.29 8.22, 5.04 8.26 C4.8 8.3, 4.55 8.32, 4.3 8.32 C4.05 8.32, 3.8 8.3, 3.55 8.26 C3.31 8.22, 3.06 8.15, 2.83 8.07 C2.59 7.99, 2.36 7.88, 2.15 7.76 C1.93 7.64, 1.73 7.5, 1.54 7.35 C1.34 7.19, 1.17 7.02, 1.01 6.83 C0.85 6.65, 0.7 6.45, 0.58 6.24 C0.45 6.03, 0.34 5.81, 0.26 5.58 C0.17 5.36, 0.11 5.12, 0.07 4.88 C0.02 4.65, 0 4.4, 0 4.16 C0 3.92, 0.02 3.68, 0.07 3.44 C0.11 3.2, 0.17 2.96, 0.26 2.74 C0.34 2.51, 0.45 2.29, 0.58 2.08 C0.7 1.87, 0.85 1.67, 1.01 1.49 C1.17 1.3, 1.34 1.13, 1.54 0.97 C1.73 0.82, 1.93 0.68, 2.15 0.56 C2.36 0.44, 2.59 0.33, 2.83 0.25 C3.06 0.17, 3.31 0.11, 3.55 0.06 C3.8 0.02, 4.05 0, 4.3 0 C4.55 0, 4.8 0.02, 5.04 0.06 C5.29 0.11, 5.53 0.17, 5.77 0.25 C6 0.33, 6.23 0.44, 6.45 0.56 C6.66 0.68, 6.87 0.82, 7.06 0.97 C7.25 1.13, 7.43 1.3, 7.59 1.49 C7.75 1.67, 7.89 1.87, 8.02 2.08 C8.14 2.29, 8.25 2.51, 8.34 2.74 C8.42 2.96, 8.49 3.2, 8.53 3.44 C8.57 3.68, 8.58 4.04, 8.59 4.16 C8.61 4.28, 8.61 4.04, 8.59 4.16" stroke="none" stroke-width="0" fill="#ffffff"></path><path d="M8.59 4.16 C8.59 4.4, 8.57 4.65, 8.53 4.88 C8.49 5.12, 8.42 5.36, 8.34 5.58 C8.25 5.81, 8.14 6.03, 8.02 6.24 C7.89 6.45, 7.75 6.65, 7.59 6.83 C7.43 7.02, 7.25 7.19, 7.06 7.35 C6.87 7.5, 6.66 7.64, 6.45 7.76 C6.23 7.88, 6 7.99, 5.77 8.07 C5.53 8.15, 5.29 8.22, 5.04 8.26 C4.8 8.3, 4.55 8.32, 4.3 8.32 C4.05 8.32, 3.8 8.3, 3.55 8.26 C3.31 8.22, 3.06 8.15, 2.83 8.07 C2.59 7.99, 2.36 7.88, 2.15 7.76 C1.93 7.64, 1.73 7.5, 1.54 7.35 C1.34 7.19, 1.17 7.02, 1.01 6.83 C0.85 6.65, 0.7 6.45, 0.58 6.24 C0.45 6.03, 0.34 5.81, 0.26 5.58 C0.17 5.36, 0.11 5.12, 0.07 4.88 C0.02 4.65, 0 4.4, 0 4.16 C0 3.92, 0.02 3.68, 0.07 3.44 C0.11 3.2, 0.17 2.96, 0.26 2.74 C0.34 2.51, 0.45 2.29, 0.58 2.08 C0.7 1.87, 0.85 1.67, 1.01 1.49 C1.17 1.3, 1.34 1.13, 1.54 0.97 C1.73 0.82, 1.93 0.68, 2.15 0.56 C2.36 0.44, 2.59 0.33, 2.83 0.25 C3.06 0.17, 3.31 0.11, 3.55 0.06 C3.8 0.02, 4.05 0, 4.3 0 C4.55 0, 4.8 0.02, 5.04 0.06 C5.29 0.11, 5.53 0.17, 5.77 0.25 C6 0.33, 6.23 0.44, 6.45 0.56 C6.66 0.68, 6.87 0.82, 7.06 0.97 C7.25 1.13, 7.43 1.3, 7.59 1.49 C7.75 1.67, 7.89 1.87, 8.02 2.08 C8.14 2.29, 8.25 2.51, 8.34 2.74 C8.42 2.96, 8.49 3.2, 8.53 3.44 C8.57 3.68, 8.58 4.04, 8.59 4.16 C8.61 4.28, 8.61 4.04, 8.59 4.16" stroke="#ffffff" stroke-width="4" fill="none"></path></g><g stroke-linecap="round" transform="translate(55.81315203428176 22.06359299463392) rotate(0 4.29745924182248 4.160382163806133)"><path d="M8.59 4.16 C8.59 4.4, 8.57 4.65, 8.53 4.88 C8.49 5.12, 8.42 5.36, 8.34 5.58 C8.25 5.81, 8.14 6.03, 8.02 6.24 C7.89 6.45, 7.75 6.65, 7.59 6.83 C7.43 7.02, 7.25 7.19, 7.06 7.35 C6.87 7.5, 6.66 7.64, 6.45 7.76 C6.23 7.88, 6 7.99, 5.77 8.07 C5.53 8.15, 5.29 8.22, 5.04 8.26 C4.8 8.3, 4.55 8.32, 4.3 8.32 C4.05 8.32, 3.8 8.3, 3.55 8.26 C3.31 8.22, 3.06 8.15, 2.83 8.07 C2.59 7.99, 2.36 7.88, 2.15 7.76 C1.93 7.64, 1.73 7.5, 1.54 7.35 C1.34 7.19, 1.17 7.02, 1.01 6.83 C0.85 6.65, 0.7 6.45, 0.58 6.24 C0.45 6.03, 0.34 5.81, 0.26 5.58 C0.17 5.36, 0.11 5.12, 0.07 4.88 C0.02 4.65, 0 4.4, 0 4.16 C0 3.92, 0.02 3.68, 0.07 3.44 C0.11 3.2, 0.17 2.96, 0.26 2.74 C0.34 2.51, 0.45 2.29, 0.58 2.08 C0.7 1.87, 0.85 1.67, 1.01 1.49 C1.17 1.3, 1.34 1.13, 1.54 0.97 C1.73 0.82, 1.93 0.68, 2.15 0.56 C2.36 0.44, 2.59 0.33, 2.83 0.25 C3.06 0.17, 3.31 0.11, 3.55 0.06 C3.8 0.02, 4.05 0, 4.3 0 C4.55 0, 4.8 0.02, 5.04 0.06 C5.29 0.11, 5.53 0.17, 5.77 0.25 C6 0.33, 6.23 0.44, 6.45 0.56 C6.66 0.68, 6.87 0.82, 7.06 0.97 C7.25 1.13, 7.43 1.3, 7.59 1.49 C7.75 1.67, 7.89 1.87, 8.02 2.08 C8.14 2.29, 8.25 2.51, 8.34 2.74 C8.42 2.96, 8.49 3.2, 8.53 3.44 C8.57 3.68, 8.58 4.04, 8.59 4.16 C8.61 4.28, 8.61 4.04, 8.59 4.16" stroke="none" stroke-width="0" fill="#ffffff"></path><path d="M8.59 4.16 C8.59 4.4, 8.57 4.65, 8.53 4.88 C8.49 5.12, 8.42 5.36, 8.34 5.58 C8.25 5.81, 8.14 6.03, 8.02 6.24 C7.89 6.45, 7.75 6.65, 7.59 6.83 C7.43 7.02, 7.25 7.19, 7.06 7.35 C6.87 7.5, 6.66 7.64, 6.45 7.76 C6.23 7.88, 6 7.99, 5.77 8.07 C5.53 8.15, 5.29 8.22, 5.04 8.26 C4.8 8.3, 4.55 8.32, 4.3 8.32 C4.05 8.32, 3.8 8.3, 3.55 8.26 C3.31 8.22, 3.06 8.15, 2.83 8.07 C2.59 7.99, 2.36 7.88, 2.15 7.76 C1.93 7.64, 1.73 7.5, 1.54 7.35 C1.34 7.19, 1.17 7.02, 1.01 6.83 C0.85 6.65, 0.7 6.45, 0.58 6.24 C0.45 6.03, 0.34 5.81, 0.26 5.58 C0.17 5.36, 0.11 5.12, 0.07 4.88 C0.02 4.65, 0 4.4, 0 4.16 C0 3.92, 0.02 3.68, 0.07 3.44 C0.11 3.2, 0.17 2.96, 0.26 2.74 C0.34 2.51, 0.45 2.29, 0.58 2.08 C0.7 1.87, 0.85 1.67, 1.01 1.49 C1.17 1.3, 1.34 1.13, 1.54 0.97 C1.73 0.82, 1.93 0.68, 2.15 0.56 C2.36 0.44, 2.59 0.33, 2.83 0.25 C3.06 0.17, 3.31 0.11, 3.55 0.06 C3.8 0.02, 4.05 0, 4.3 0 C4.55 0, 4.8 0.02, 5.04 0.06 C5.29 0.11, 5.53 0.17, 5.77 0.25 C6 0.33, 6.23 0.44, 6.45 0.56 C6.66 0.68, 6.87 0.82, 7.06 0.97 C7.25 1.13, 7.43 1.3, 7.59 1.49 C7.75 1.67, 7.89 1.87, 8.02 2.08 C8.14 2.29, 8.25 2.51, 8.34 2.74 C8.42 2.96, 8.49 3.2, 8.53 3.44 C8.57 3.68, 8.58 4.04, 8.59 4.16 C8.61 4.28, 8.61 4.04, 8.59 4.16" stroke="#ffffff" stroke-width="4" fill="none"></path></g><g stroke-linecap="round" transform="translate(55.81315146228326 56.12416429026115) rotate(0 4.29745924182248 4.160382163806133)"><path d="M8.59 4.16 C8.59 4.4, 8.57 4.65, 8.53 4.88 C8.49 5.12, 8.42 5.36, 8.34 5.58 C8.25 5.81, 8.14 6.03, 8.02 6.24 C7.89 6.45, 7.75 6.65, 7.59 6.83 C7.43 7.02, 7.25 7.19, 7.06 7.35 C6.87 7.5, 6.66 7.64, 6.45 7.76 C6.23 7.88, 6 7.99, 5.77 8.07 C5.53 8.15, 5.29 8.22, 5.04 8.26 C4.8 8.3, 4.55 8.32, 4.3 8.32 C4.05 8.32, 3.8 8.3, 3.55 8.26 C3.31 8.22, 3.06 8.15, 2.83 8.07 C2.59 7.99, 2.36 7.88, 2.15 7.76 C1.93 7.64, 1.73 7.5, 1.54 7.35 C1.34 7.19, 1.17 7.02, 1.01 6.83 C0.85 6.65, 0.7 6.45, 0.58 6.24 C0.45 6.03, 0.34 5.81, 0.26 5.58 C0.17 5.36, 0.11 5.12, 0.07 4.88 C0.02 4.65, 0 4.4, 0 4.16 C0 3.92, 0.02 3.68, 0.07 3.44 C0.11 3.2, 0.17 2.96, 0.26 2.74 C0.34 2.51, 0.45 2.29, 0.58 2.08 C0.7 1.87, 0.85 1.67, 1.01 1.49 C1.17 1.3, 1.34 1.13, 1.54 0.97 C1.73 0.82, 1.93 0.68, 2.15 0.56 C2.36 0.44, 2.59 0.33, 2.83 0.25 C3.06 0.17, 3.31 0.11, 3.55 0.06 C3.8 0.02, 4.05 0, 4.3 0 C4.55 0, 4.8 0.02, 5.04 0.06 C5.29 0.11, 5.53 0.17, 5.77 0.25 C6 0.33, 6.23 0.44, 6.45 0.56 C6.66 0.68, 6.87 0.82, 7.06 0.97 C7.25 1.13, 7.43 1.3, 7.59 1.49 C7.75 1.67, 7.89 1.87, 8.02 2.08 C8.14 2.29, 8.25 2.51, 8.34 2.74 C8.42 2.96, 8.49 3.2, 8.53 3.44 C8.57 3.68, 8.58 4.04, 8.59 4.16 C8.61 4.28, 8.61 4.04, 8.59 4.16" stroke="none" stroke-width="0" fill="#ffffff"></path><path d="M8.59 4.16 C8.59 4.4, 8.57 4.65, 8.53 4.88 C8.49 5.12, 8.42 5.36, 8.34 5.58 C8.25 5.81, 8.14 6.03, 8.02 6.24 C7.89 6.45, 7.75 6.65, 7.59 6.83 C7.43 7.02, 7.25 7.19, 7.06 7.35 C6.87 7.5, 6.66 7.64, 6.45 7.76 C6.23 7.88, 6 7.99, 5.77 8.07 C5.53 8.15, 5.29 8.22, 5.04 8.26 C4.8 8.3, 4.55 8.32, 4.3 8.32 C4.05 8.32, 3.8 8.3, 3.55 8.26 C3.31 8.22, 3.06 8.15, 2.83 8.07 C2.59 7.99, 2.36 7.88, 2.15 7.76 C1.93 7.64, 1.73 7.5, 1.54 7.35 C1.34 7.19, 1.17 7.02, 1.01 6.83 C0.85 6.65, 0.7 6.45, 0.58 6.24 C0.45 6.03, 0.34 5.81, 0.26 5.58 C0.17 5.36, 0.11 5.12, 0.07 4.88 C0.02 4.65, 0 4.4, 0 4.16 C0 3.92, 0.02 3.68, 0.07 3.44 C0.11 3.2, 0.17 2.96, 0.26 2.74 C0.34 2.51, 0.45 2.29, 0.58 2.08 C0.7 1.87, 0.85 1.67, 1.01 1.49 C1.17 1.3, 1.34 1.13, 1.54 0.97 C1.73 0.82, 1.93 0.68, 2.15 0.56 C2.36 0.44, 2.59 0.33, 2.83 0.25 C3.06 0.17, 3.31 0.11, 3.55 0.06 C3.8 0.02, 4.05 0, 4.3 0 C4.55 0, 4.8 0.02, 5.04 0.06 C5.29 0.11, 5.53 0.17, 5.77 0.25 C6 0.33, 6.23 0.44, 6.45 0.56 C6.66 0.68, 6.87 0.82, 7.06 0.97 C7.25 1.13, 7.43 1.3, 7.59 1.49 C7.75 1.67, 7.89 1.87, 8.02 2.08 C8.14 2.29, 8.25 2.51, 8.34 2.74 C8.42 2.96, 8.49 3.2, 8.53 3.44 C8.57 3.68, 8.58 4.04, 8.59 4.16 C8.61 4.28, 8.61 4.04, 8.59 4.16" stroke="#ffffff" stroke-width="4" fill="none"></path></g><g stroke-linecap="round"><g transform="translate(42.02878540139909 10.165538238648992) rotate(0 5.503029548700852 0.03733951296482019)"><path d="M0 0 C0.94 -0.03, 3.78 -0.2, 5.62 -0.16 C7.45 -0.12, 10.11 0.17, 11.01 0.23 M0 0 C0.94 -0.03, 3.78 -0.2, 5.62 -0.16 C7.45 -0.12, 10.11 0.17, 11.01 0.23" stroke="#1e1e1e" stroke-width="1" fill="none"></path></g></g><mask></mask><g stroke-linecap="round"><g transform="translate(43.91741601495414 76.348130864746) rotate(0 6.422370733641401 -0.7910251364557155)"><path d="M0 0 C1.07 -0.07, 4.3 -0.15, 6.44 -0.41 C8.58 -0.68, 11.78 -1.39, 12.84 -1.58 M0 0 C1.07 -0.07, 4.3 -0.15, 6.44 -0.41 C8.58 -0.68, 11.78 -1.39, 12.84 -1.58" stroke="#1e1e1e" stroke-width="1" fill="none"></path></g></g><mask></mask><g stroke-linecap="round" transform="translate(20.12763683770754 56.12416657511403) rotate(0 4.29745924182248 4.160382163806133)"><path d="M8.59 4.16 C8.59 4.4, 8.57 4.65, 8.53 4.88 C8.49 5.12, 8.42 5.36, 8.34 5.58 C8.25 5.81, 8.14 6.03, 8.02 6.24 C7.89 6.45, 7.75 6.65, 7.59 6.83 C7.43 7.02, 7.25 7.19, 7.06 7.35 C6.87 7.5, 6.66 7.64, 6.45 7.76 C6.23 7.88, 6 7.99, 5.77 8.07 C5.53 8.15, 5.29 8.22, 5.04 8.26 C4.8 8.3, 4.55 8.32, 4.3 8.32 C4.05 8.32, 3.8 8.3, 3.55 8.26 C3.31 8.22, 3.06 8.15, 2.83 8.07 C2.59 7.99, 2.36 7.88, 2.15 7.76 C1.93 7.64, 1.73 7.5, 1.54 7.35 C1.34 7.19, 1.17 7.02, 1.01 6.83 C0.85 6.65, 0.7 6.45, 0.58 6.24 C0.45 6.03, 0.34 5.81, 0.26 5.58 C0.17 5.36, 0.11 5.12, 0.07 4.88 C0.02 4.65, 0 4.4, 0 4.16 C0 3.92, 0.02 3.68, 0.07 3.44 C0.11 3.2, 0.17 2.96, 0.26 2.74 C0.34 2.51, 0.45 2.29, 0.58 2.08 C0.7 1.87, 0.85 1.67, 1.01 1.49 C1.17 1.3, 1.34 1.13, 1.54 0.97 C1.73 0.82, 1.93 0.68, 2.15 0.56 C2.36 0.44, 2.59 0.33, 2.83 0.25 C3.06 0.17, 3.31 0.11, 3.55 0.06 C3.8 0.02, 4.05 0, 4.3 0 C4.55 0, 4.8 0.02, 5.04 0.06 C5.29 0.11, 5.53 0.17, 5.77 0.25 C6 0.33, 6.23 0.44, 6.45 0.56 C6.66 0.68, 6.87 0.82, 7.06 0.97 C7.25 1.13, 7.43 1.3, 7.59 1.49 C7.75 1.67, 7.89 1.87, 8.02 2.08 C8.14 2.29, 8.25 2.51, 8.34 2.74 C8.42 2.96, 8.49 3.2, 8.53 3.44 C8.57 3.68, 8.58 4.04, 8.59 4.16 C8.61 4.28, 8.61 4.04, 8.59 4.16" stroke="none" stroke-width="0" fill="#ffffff"></path><path d="M8.59 4.16 C8.59 4.4, 8.57 4.65, 8.53 4.88 C8.49 5.12, 8.42 5.36, 8.34 5.58 C8.25 5.81, 8.14 6.03, 8.02 6.24 C7.89 6.45, 7.75 6.65, 7.59 6.83 C7.43 7.02, 7.25 7.19, 7.06 7.35 C6.87 7.5, 6.66 7.64, 6.45 7.76 C6.23 7.88, 6 7.99, 5.77 8.07 C5.53 8.15, 5.29 8.22, 5.04 8.26 C4.8 8.3, 4.55 8.32, 4.3 8.32 C4.05 8.32, 3.8 8.3, 3.55 8.26 C3.31 8.22, 3.06 8.15, 2.83 8.07 C2.59 7.99, 2.36 7.88, 2.15 7.76 C1.93 7.64, 1.73 7.5, 1.54 7.35 C1.34 7.19, 1.17 7.02, 1.01 6.83 C0.85 6.65, 0.7 6.45, 0.58 6.24 C0.45 6.03, 0.34 5.81, 0.26 5.58 C0.17 5.36, 0.11 5.12, 0.07 4.88 C0.02 4.65, 0 4.4, 0 4.16 C0 3.92, 0.02 3.68, 0.07 3.44 C0.11 3.2, 0.17 2.96, 0.26 2.74 C0.34 2.51, 0.45 2.29, 0.58 2.08 C0.7 1.87, 0.85 1.67, 1.01 1.49 C1.17 1.3, 1.34 1.13, 1.54 0.97 C1.73 0.82, 1.93 0.68, 2.15 0.56 C2.36 0.44, 2.59 0.33, 2.83 0.25 C3.06 0.17, 3.31 0.11, 3.55 0.06 C3.8 0.02, 4.05 0, 4.3 0 C4.55 0, 4.8 0.02, 5.04 0.06 C5.29 0.11, 5.53 0.17, 5.77 0.25 C6 0.33, 6.23 0.44, 6.45 0.56 C6.66 0.68, 6.87 0.82, 7.06 0.97 C7.25 1.13, 7.43 1.3, 7.59 1.49 C7.75 1.67, 7.89 1.87, 8.02 2.08 C8.14 2.29, 8.25 2.51, 8.34 2.74 C8.42 2.96, 8.49 3.2, 8.53 3.44 C8.57 3.68, 8.58 4.04, 8.59 4.16 C8.61 4.28, 8.61 4.04, 8.59 4.16" stroke="#ffffff" stroke-width="4" fill="none"></path></g><g stroke-linecap="round"><g transform="translate(58.6656811049902 15.180673882374663) rotate(0 6.313111385380807 1.2626182210578207)"><path d="M0 0 C2.1 0.42, 10.52 2.1, 12.63 2.53 M0 0 C2.1 0.42, 10.52 2.1, 12.63 2.53" stroke="#1e1e1e" stroke-width="1" fill="none"></path></g></g><mask></mask><g stroke-linecap="round"><g transform="translate(63.91553770949213 20.56342846194636) rotate(0 6.313111385380807 1.2626182210578207)"><path d="M0 0 C2.1 0.42, 10.52 2.1, 12.63 2.53 M0 0 C2.1 0.42, 10.52 2.1, 12.63 2.53" stroke="#1e1e1e" stroke-width="1" fill="none"></path></g></g><mask></mask><g stroke-linecap="round"><g transform="translate(68.56730399345633 27.607523072911277) rotate(0 6.113747945201794 0.9968045258381295)"><path d="M0 0 C2.04 0.33, 10.19 1.66, 12.23 1.99 M0 0 C2.04 0.33, 10.19 1.66, 12.23 1.99" stroke="#1e1e1e" stroke-width="1" fill="none"></path></g></g><mask></mask><g stroke-linecap="round"><g transform="translate(70.89319727548445 35.58198462973087) rotate(0 6.113747945201794 0.9968045258381295)"><path d="M0 0 C2.04 0.33, 10.19 1.66, 12.23 1.99 M0 0 C2.04 0.33, 10.19 1.66, 12.23 1.99" stroke="#1e1e1e" stroke-width="1" fill="none"></path></g></g><mask></mask><g stroke-linecap="round"><g transform="translate(73.68424487780794 44.486790317302166) rotate(0 4.784671864068969 0.7309908306184241)"><path d="M0 0 C1.59 0.24, 7.97 1.22, 9.57 1.46 M0 0 C1.59 0.24, 7.97 1.22, 9.57 1.46" stroke="#1e1e1e" stroke-width="1" fill="none"></path></g></g><mask></mask><g stroke-linecap="round"><g transform="translate(71.15900843569307 53.25869802980378) rotate(0 4.784671864068969 0.7309908306184241)"><path d="M0 0 C1.59 0.24, 7.97 1.22, 9.57 1.46 M0 0 C1.59 0.24, 7.97 1.22, 9.57 1.46" stroke="#1e1e1e" stroke-width="1" fill="none"></path></g></g><mask></mask><g stroke-linecap="round"><g transform="translate(67.70340251271091 61.49896567680878) rotate(0 4.385950053733723 0.7974436206705207)"><path d="M0 0 C1.46 0.27, 7.31 1.33, 8.77 1.59 M0 0 C1.46 0.27, 7.31 1.33, 8.77 1.59" stroke="#1e1e1e" stroke-width="1" fill="none"></path></g></g><mask></mask><g stroke-linecap="round"><g transform="translate(60.260573416353054 67.81208213221225) rotate(0 4.385950053733723 0.7974436206705207)"><path d="M0 0 C1.46 0.27, 7.31 1.33, 8.77 1.59 M0 0 C1.46 0.27, 7.31 1.33, 8.77 1.59" stroke="#1e1e1e" stroke-width="1" fill="none"></path></g></g><mask></mask></svg>